<?xml version="1.0" encoding="UTF-8"?>
<svg version="1.1" xmlns="http://www.w3.org/2000/svg" width="594" height="420">
<path d="M0 0 C-1.30247724 3.42717174 -2.7939438 6.58185602 -4.609375 9.765625 C-5.11726562 10.65636719 -5.62515625 11.54710937 -6.1484375 12.46484375 C-6.67695313 13.38394531 -7.20546875 14.30304687 -7.75 15.25 C-8.26304687 16.15363281 -8.77609375 17.05726562 -9.3046875 17.98828125 C-12.25724088 23.14412194 -15.34775851 28.14308774 -18.71801758 33.03686523 C-20.33482735 35.51273028 -21.59406589 38.08306942 -22.8515625 40.75390625 C-24.88601304 44.73284863 -27.33085399 48.48333872 -29.70703125 52.265625 C-31.13498504 54.80388581 -31.13498504 54.80388581 -31.04296875 57.04296875 C-29.46324529 60.00716895 -27.02290593 61.92252828 -24.5 64.0625 C-15.9198372 71.6344361 -9.07060785 80.31431106 -3 90 C-2.52046875 90.7321875 -2.0409375 91.464375 -1.546875 92.21875 C16.672225 120.98575 21.08804949 156.4942202 14.33203125 189.5078125 C10.40891635 206.66804258 2.76986311 222.43651247 -7 237 C-7.73476563 238.10988281 -7.73476563 238.10988281 -8.484375 239.2421875 C-9.59624757 240.87075379 -10.78935507 242.44345652 -12 244 C-12.66 244 -13.32 244 -14 244 C-14.3403125 244.804375 -14.3403125 244.804375 -14.6875 245.625 C-18.81016459 253.08505973 -25.40264376 257.8218925 -32 263 C-32.89589844 263.73476563 -33.79179687 264.46953125 -34.71484375 265.2265625 C-61.90536888 286.81118694 -97.08753026 295.00711554 -131.24951172 291.17260742 C-142.67535072 289.74170977 -152.98303298 287.10410287 -163.55859375 282.42578125 C-169.93193077 279.41374462 -169.93193077 279.41374462 -176.625 280.125 C-178.29405572 281.39989727 -178.29405572 281.39989727 -180 283 C-181.6446917 284.33474131 -183.29067017 285.66789765 -184.9375 287 C-185.86304688 287.77214844 -186.78859375 288.54429687 -187.7421875 289.33984375 C-191.59874593 292.52351944 -195.57278103 295.54842307 -199.5625 298.5625 C-200.26560303 299.09939453 -200.96870605 299.63628906 -201.69311523 300.18945312 C-202.35255127 300.68509766 -203.0119873 301.18074219 -203.69140625 301.69140625 C-204.28123291 302.13685791 -204.87105957 302.58230957 -205.47875977 303.04125977 C-207 304 -207 304 -209 304 C-209 304.66 -209 305.32 -209 306 C-209.99 306 -210.98 306 -212 306 C-212.33 306.99 -212.66 307.98 -213 309 C-214.8125 310.31640625 -214.8125 310.31640625 -217 311.5625 C-220.08502827 313.21374548 -220.08502827 313.21374548 -222 316 C-222.99 316.33 -223.98 316.66 -225 317 C-225.33 317.66 -225.66 318.32 -226 319 C-226.99 319 -227.98 319 -229 319 C-227.3970994 315.53115871 -225.36938313 312.50816798 -223.1875 309.375 C-222.80440674 308.82448975 -222.42131348 308.27397949 -222.02661133 307.70678711 C-217.92720491 301.84417785 -213.72782389 296.0528909 -209.51831055 290.26904297 C-208.99019775 289.54217285 -208.46208496 288.81530273 -207.91796875 288.06640625 C-207.41571777 287.37562988 -206.9134668 286.68485352 -206.39599609 285.97314453 C-205.1187414 284.1678328 -203.92206633 282.33210751 -202.73828125 280.46484375 C-202.16464844 279.65144531 -201.59101563 278.83804687 -201 278 C-200.34 278 -199.68 278 -199 278 C-198.9071875 277.195625 -198.9071875 277.195625 -198.8125 276.375 C-197.97833234 273.93666375 -197.10339385 272.79501325 -195.4375 270.875 C-192.78443825 268.37395127 -192.78443825 268.37395127 -193 266 C-194.87985537 264.28848303 -194.87985537 264.28848303 -197.25 262.5625 C-198.03890625 261.96566406 -198.8278125 261.36882812 -199.640625 260.75390625 C-201.17536732 259.61301336 -202.72696508 258.49433891 -204.296875 257.40234375 C-204.85890625 256.93957031 -205.4209375 256.47679687 -206 256 C-206 255.34 -206 254.68 -206 254 C-206.66 254 -207.32 254 -208 254 C-217.41604196 245.14571054 -225.25408461 233.49183077 -231 222 C-231.50144531 221.07960938 -232.00289062 220.15921875 -232.51953125 219.2109375 C-248.14797774 189.85319751 -250.31077572 152.66332785 -240.79248047 121.09228516 C-236.49048974 107.73424769 -230.38590047 94.33084196 -222 83 C-221.34 83 -220.68 83 -220 83 C-219.773125 82.29488281 -219.54625 81.58976562 -219.3125 80.86328125 C-217.70705085 77.36091748 -215.60671731 75.01775847 -213 72.1875 C-212.113125 71.21167969 -211.22625 70.23585938 -210.3125 69.23046875 C-208 67 -208 67 -206 67 C-205.505 65.515 -205.505 65.515 -205 64 C-202.671875 61.80859375 -202.671875 61.80859375 -199.75 59.4375 C-198.79609375 58.65246094 -197.8421875 57.86742187 -196.859375 57.05859375 C-194.25696635 55.18500173 -192.02038092 54.01965414 -189 53 C-189 52.34 -189 51.68 -189 51 C-177.1601767 42.64377462 -162.92924273 36.68816156 -149 33 C-147.95328125 32.71253906 -146.9065625 32.42507812 -145.828125 32.12890625 C-133.43259993 28.96955901 -120.73751617 28.66074412 -108 29 C-106.91460937 29.02835938 -105.82921875 29.05671875 -104.7109375 29.0859375 C-86.39863234 29.96997982 -67.86807195 35.00057312 -52.015625 44.3125 C-49.97173853 45.23832714 -49.97173853 45.23832714 -47.8125 44.2578125 C-45.65659905 42.76169158 -44.96380545 41.40951362 -44 39 C-43.34 39 -42.68 39 -42 39 C-42 38.34 -42 37.68 -42 37 C-40.49609375 35.51953125 -40.49609375 35.51953125 -38.4375 33.8125 C-34.89003826 30.81322507 -31.63477128 27.66004868 -28.4453125 24.28515625 C-27 23 -27 23 -25 23 C-24.67 22.01 -24.34 21.02 -24 20 C-23.34 20 -22.68 20 -22 20 C-22 19.34 -22 18.68 -22 18 C-21.34 18 -20.68 18 -20 18 C-20 17.34 -20 16.68 -20 16 C-18.35546875 14.37890625 -18.35546875 14.37890625 -16.1875 12.5625 C-13.17536735 10.02660668 -13.17536735 10.02660668 -10.36328125 7.27734375 C-9 6 -9 6 -7 6 C-6.67 5.01 -6.34 4.02 -6 3 C-5.34 3 -4.68 3 -4 3 C-4 2.34 -4 1.68 -4 1 C-2 0 -2 0 0 0 Z M-51 48 C-51.87011719 48.88751953 -51.87011719 48.88751953 -52.7578125 49.79296875 C-57.01419481 54.09851719 -61.25962383 58.23200869 -66 62 C-63.30013396 65.0869436 -59.92464868 66.99476277 -56.4375 69.0625 C-50.25506757 72.74493243 -50.25506757 72.74493243 -48 75 C-46.01834002 75.20385129 -46.01834002 75.20385129 -44 74 C-42.42491776 71.71481575 -41.10709869 69.55874838 -39.8125 67.125 C-39.45736328 66.48691406 -39.10222656 65.84882812 -38.73632812 65.19140625 C-37.25233655 62.49375173 -35.97535951 59.92607854 -35 57 C-36.53476782 55.86560639 -38.0781821 54.74290674 -39.625 53.625 C-40.48351562 52.99851562 -41.34203125 52.37203125 -42.2265625 51.7265625 C-45.09235812 49.94250382 -47.76847942 48.93818339 -51 48 Z M-197.4375 91.625 C-201.69120288 96.43442858 -205.01358685 101.32825623 -208 107 C-208.58652344 108.09441406 -209.17304688 109.18882812 -209.77734375 110.31640625 C-222.6385437 134.80535421 -225.93469204 163.29697003 -218.41552734 190.08203125 C-217.14110171 194.1362041 -215.62553428 198.07557097 -214 202 C-213.67386719 202.79664063 -213.34773438 203.59328125 -213.01171875 204.4140625 C-212.36491048 205.9529144 -211.68801499 207.47912476 -211 209 C-210.34 209 -209.68 209 -209 209 C-208.89171875 209.56074219 -208.7834375 210.12148437 -208.671875 210.69921875 C-206.64430728 217.64245938 -201.42541357 224.34530489 -197 230 C-196.34 230 -195.68 230 -195 230 C-194.79375 230.53625 -194.5875 231.0725 -194.375 231.625 C-192.46749574 234.91978009 -189.95180616 237.59363628 -187 240 C-186.34 240 -185.68 240 -185 240 C-184.67 240.99 -184.34 241.98 -184 243 C-182.37051936 244.22445284 -182.37051936 244.22445284 -180.4375 245.1875 C-179.303125 245.785625 -178.16875 246.38375 -177 247 C-171.35424553 239.2725707 -165.75776395 231.51111549 -160.22119141 223.70507812 C-159.35334994 222.49336185 -158.4741928 221.28971499 -157.58740234 220.09179688 C-154.92634581 216.88429168 -154.92634581 216.88429168 -154 213 C-153.34 213 -152.68 213 -152 213 C-150.47372117 211.15599697 -150.47372117 211.15599697 -149 208.8125 C-148.484375 208.03519531 -147.96875 207.25789062 -147.4375 206.45703125 C-145.91739961 204.02629223 -145.91739961 204.02629223 -145 201.26171875 C-144.67 200.51535156 -144.34 199.76898438 -144 199 C-143.01 198.67 -142.02 198.34 -141 198 C-141 197.01 -141 196.02 -141 195 C-140.34 195 -139.68 195 -139 195 C-137.40963798 192.94677142 -135.94301709 190.90299994 -134.5 188.75 C-134.09652344 188.16347656 -133.69304687 187.57695312 -133.27734375 186.97265625 C-131.28110597 184.04088789 -129.59079798 181.18159597 -128 178 C-157.205 177.505 -157.205 177.505 -187 177 C-185.06098818 173.12197635 -183.81978102 171.72952165 -180.625 169 C-176.5466958 165.42853707 -172.67581744 161.73429155 -168.875 157.875 C-163.79143028 152.73264673 -158.53600325 147.9139912 -152.95703125 143.31640625 C-152.31121094 142.77886719 -151.66539062 142.24132812 -151 141.6875 C-150.4225 141.21699219 -149.845 140.74648437 -149.25 140.26171875 C-147.76539999 139.05921273 -147.76539999 139.05921273 -148 137 C-147.42121094 136.74992187 -146.84242188 136.49984375 -146.24609375 136.2421875 C-143.70129381 134.83480249 -142.06551169 133.22717069 -140.0625 131.125 C-137.18331567 128.16583832 -134.25212147 125.54896007 -131 123 C-129.32048594 121.34628053 -127.65589501 119.67736915 -126 118 C-124.10595341 116.08155664 -122.2097279 114.16529673 -120.3125 112.25 C-119.82716797 111.75628906 -119.34183594 111.26257813 -118.84179688 110.75390625 C-115.22565901 107.11282951 -115.22565901 107.11282951 -113 106 C-113 105.34 -113 104.68 -113 104 C-112.4023584 103.72905518 -111.8047168 103.45811035 -111.18896484 103.17895508 C-109.02812475 102.01514771 -107.67156393 100.89050799 -105.9765625 99.13671875 C-105.43 98.57919922 -104.8834375 98.02167969 -104.3203125 97.44726562 C-103.76085937 96.86654297 -103.20140625 96.28582031 -102.625 95.6875 C-99.39464091 92.35524874 -96.21404533 89.10973056 -92.5859375 86.20703125 C-91.73257813 85.47871094 -90.87921875 84.75039062 -90 84 C-90 83.34 -90 82.68 -90 82 C-89.46375 81.773125 -88.9275 81.54625 -88.375 81.3125 C-83.95432133 78.86949336 -80.47229441 75.70513829 -77.3125 71.8125 C-75 69 -75 69 -72 67 C-72 66.34 -72 65.68 -72 65 C-71.01 64.67 -70.02 64.34 -69 64 C-71.16097423 59.67805153 -78.19064743 58.60774266 -82.546875 57.14453125 C-125.87808629 44.21082121 -167.44827804 59.83732395 -197.4375 91.625 Z M-46 79 C-47.71851488 81.42742947 -47.71851488 81.42742947 -49.484375 84.5546875 C-49.99149017 85.41805222 -49.99149017 85.41805222 -50.5088501 86.29885864 C-51.59623033 88.15358255 -52.67327886 90.01407177 -53.75 91.875 C-54.46024715 93.09154914 -55.17117717 94.30769987 -55.8828125 95.5234375 C-57.27665415 97.90576426 -58.6672309 100.28995286 -60.0559082 102.67529297 C-62.22754783 106.38914309 -64.43473071 110.0801023 -66.65478516 113.76513672 C-73.65123521 125.38864013 -80.39682211 137.14936915 -87 149 C-83.7218654 151.18542307 -82.48243189 151.30812148 -78.64916992 151.50244141 C-77.55340134 151.5623526 -76.45763275 151.62226379 -75.32865906 151.68399048 C-74.14125626 151.73928925 -72.95385345 151.79458801 -71.73046875 151.8515625 C-69.88887932 151.94719986 -69.88887932 151.94719986 -68.01008606 152.04476929 C-64.73601304 152.21257336 -61.46166445 152.37202702 -58.18701172 152.52801514 C-54.90613272 152.68715179 -51.62598685 152.86034412 -48.34570312 153.03125 C-45.80733185 153.159651 -43.26892132 153.28727871 -40.73046875 153.4140625 C-39.56533249 153.47340973 -38.40019623 153.53275696 -37.19975281 153.59390259 C-29.12803995 153.97667247 -21.08017682 154.06451945 -13 154 C-17.22458201 158.46960776 -21.88631698 162.18470803 -26.75 165.9375 C-27.51054687 166.53240234 -28.27109375 167.12730469 -29.0546875 167.74023438 C-33.68140442 171.32790046 -38.39063719 174.63658238 -43.35644531 177.74047852 C-43.89881836 178.15612061 -44.44119141 178.5717627 -45 179 C-45 179.66 -45 180.32 -45 181 C-45.55816406 181.2578125 -46.11632812 181.515625 -46.69140625 181.78125 C-57.83478502 187.66404894 -67.73656248 196.8721572 -77.65234375 204.64453125 C-78.45470459 205.27214355 -79.25706543 205.89975586 -80.08374023 206.54638672 C-81.66468775 207.78373334 -83.24370837 209.02354689 -84.82055664 210.26611328 C-87.83170885 212.62249369 -90.7317961 214.84205002 -94.03125 216.78515625 C-94.6809375 217.18605469 -95.330625 217.58695313 -96 218 C-96 218.66 -96 219.32 -96 220 C-96.78310547 220.34611328 -96.78310547 220.34611328 -97.58203125 220.69921875 C-100.83239725 222.44780014 -103.7314834 224.61694438 -106.6875 226.8125 C-107.33960449 227.29388428 -107.99170898 227.77526855 -108.66357422 228.27124023 C-117.78448174 235.02919033 -126.78020761 241.95455794 -135.75390625 248.90625 C-136.33640137 249.35669678 -136.91889648 249.80714355 -137.51904297 250.27124023 C-139.07025904 251.47176435 -140.61920779 252.67521654 -142.16796875 253.87890625 C-145 256 -145 256 -148.36328125 258.15234375 C-149.23339844 258.76207031 -150.10351562 259.37179687 -151 260 C-151 260.66 -151 261.32 -151 262 C-138.85510346 266.54014824 -127.15130766 267.5297536 -114.3125 267.5625 C-113.57736176 267.57071777 -112.84222351 267.57893555 -112.08480835 267.58740234 C-86.16331174 267.80090531 -61.58201876 258.05228573 -42.40625 240.59375 C-40.77945945 239.1042973 -40.77945945 239.1042973 -41 237 C-40.1028125 236.5978125 -40.1028125 236.5978125 -39.1875 236.1875 C-37.00152146 235.00082594 -35.58667406 233.90400887 -34 232 C-34 231.34 -34 230.68 -34 230 C-33.34 230 -32.68 230 -32 230 C-29.41433977 226.85490932 -27.25710824 223.38566236 -25 220 C-24.40445313 219.15824219 -23.80890625 218.31648437 -23.1953125 217.44921875 C-16.6343702 207.84108325 -13.11301547 197.1256466 -10 186 C-9.649375 184.96875 -9.29875 183.9375 -8.9375 182.875 C-7.58503807 177.284824 -7.27753966 171.73356319 -7 166 C-6.95746094 165.12472656 -6.91492188 164.24945313 -6.87109375 163.34765625 C-6.20360561 134.46766938 -16.54460463 109.90085735 -35 88 C-35.69480469 87.11699219 -36.38960938 86.23398438 -37.10546875 85.32421875 C-39.17911086 82.78026606 -41.32774682 80.89870621 -44 79 C-44.66 79 -45.32 79 -46 79 Z M-178 250 C-179.41500259 251.51418959 -179.41500259 251.51418959 -180.8203125 253.5 C-181.35527344 254.221875 -181.89023438 254.94375 -182.44140625 255.6875 C-182.99699219 256.450625 -183.55257812 257.21375 -184.125 258 C-184.68832031 258.763125 -185.25164062 259.52625 -185.83203125 260.3125 C-187.22714943 262.20418566 -188.61611971 264.10008585 -190 266 C-186.43312878 269.04408304 -182.90489084 271.21082201 -178.6875 273.25 C-177.61886719 273.77078125 -176.55023438 274.2915625 -175.44921875 274.828125 C-174.23685547 275.40820312 -174.23685547 275.40820312 -173 276 C-172.52578613 275.64172119 -172.05157227 275.28344238 -171.56298828 274.91430664 C-169.41824524 273.29536988 -167.27164909 271.67890842 -165.125 270.0625 C-164.37863281 269.49853516 -163.63226563 268.93457031 -162.86328125 268.35351562 C-161.79013672 267.54624023 -161.79013672 267.54624023 -160.6953125 266.72265625 C-160.03547363 266.22515869 -159.37563477 265.72766113 -158.69580078 265.21508789 C-157 264 -157 264 -155 263 C-155 262.34 -155 261.68 -155 261 C-156.09699219 260.45730469 -157.19398438 259.91460937 -158.32421875 259.35546875 C-159.77869939 258.6329203 -161.2331235 257.91025804 -162.6875 257.1875 C-163.40873047 256.83107422 -164.12996094 256.47464844 -164.87304688 256.10742188 C-167.95563638 254.573165 -170.95073476 253.02998465 -173.89453125 251.23828125 C-175.88022359 249.83101659 -175.88022359 249.83101659 -178 250 Z " fill="#A43F95" transform="translate(407,42)"/>
<path d="M0 0 C1.08539063 0.02835937 2.17078125 0.05671875 3.2890625 0.0859375 C12.94043561 0.55186586 25.20854157 1.60427079 34 6 C34 6.99 34 7.98 34 9 C35.65 9.66 37.3 10.32 39 11 C39 11.99 39 12.98 39 14 C39.56589844 14.18175781 40.13179687 14.36351563 40.71484375 14.55078125 C41.44832031 14.80214844 42.18179688 15.05351563 42.9375 15.3125 C43.66839844 15.55613281 44.39929688 15.79976562 45.15234375 16.05078125 C47 17 47 17 48 20 C47.67 20.66 47.34 21.32 47 22 C47.39938767 24.09821215 47.39938767 24.09821215 48 26 C45.75 27.125 45.75 27.125 43 28 C40.6875 27.125 40.6875 27.125 39 26 C39 26.66 39 27.32 39 28 C38.34 28 37.68 28 37 28 C36.67 29.32 36.34 30.64 36 32 C36 31.34 36 30.68 36 30 C35.01 29.67 34.02 29.34 33 29 C33 28.01 33 27.02 33 26 C30.77260299 27.06201737 30.77260299 27.06201737 28 29 C24.91015625 28.72265625 24.91015625 28.72265625 21 28 C19.47851358 27.74479807 17.95633203 27.49371661 16.43359375 27.24609375 C15.62567383 27.11356201 14.81775391 26.98103027 13.98535156 26.84448242 C-14.64199575 22.2716779 -43.97146083 26.78438553 -68.0625 43.70703125 C-80.26556627 53.23256304 -91.67830842 64.2523557 -99 78 C-99.5878125 79.09570312 -100.175625 80.19140625 -100.78125 81.3203125 C-113.6366266 105.81970675 -116.95193562 134.34041046 -109.39941406 161.13037109 C-107.88211274 165.94901526 -106.20179783 170.71454717 -103.84765625 175.19140625 C-103 177 -103 177 -103 180 C-102.34 180 -101.68 180 -101 180 C-100.63648438 180.70125 -100.27296875 181.4025 -99.8984375 182.125 C-96.99913274 187.59650847 -94.00485222 192.62734893 -90.1015625 197.44140625 C-89 199 -89 199 -89 201 C-88.34 201 -87.68 201 -87 201 C-85.5546875 202.50390625 -85.5546875 202.50390625 -83.875 204.5625 C-77.46317572 212.18677282 -77.46317572 212.18677282 -69 217 C-68.01 216.01 -67.02 215.02 -66 214 C-62.83884224 215.36983503 -62.0072908 215.9890638 -60 219 C-60 219.99 -60 220.98 -60 222 C-60.6290625 221.87238281 -61.258125 221.74476563 -61.90625 221.61328125 C-64.91137033 221.26479591 -67.05783186 221.23411555 -70 222 C-73.32171994 225.2773564 -75.59555584 229.02406001 -78 233 C-78.98280214 234.34606008 -79.97611545 235.68491893 -81 237 C-79.65114018 237.94511946 -78.29557262 238.8806672 -76.9375 239.8125 C-76.18339844 240.33457031 -75.42929688 240.85664063 -74.65234375 241.39453125 C-71.52503474 243.28749738 -68.38377165 244.62081278 -65 246 C-64.52578613 245.63648438 -64.05157227 245.27296875 -63.56298828 244.8984375 C-61.42074207 243.26065064 -59.27297842 241.63026055 -57.125 240 C-56.37863281 239.42765625 -55.63226563 238.8553125 -54.86328125 238.265625 C-54.14785156 237.72421875 -53.43242187 237.1828125 -52.6953125 236.625 C-52.03547363 236.12226563 -51.37563477 235.61953125 -50.69580078 235.1015625 C-49 234 -49 234 -47 234 C-47 233.34 -47 232.68 -47 232 C-47.61875 231.855625 -48.2375 231.71125 -48.875 231.5625 C-51 231 -51 231 -53 230 C-53 229.34 -53 228.68 -53 228 C-52.01 228 -51.02 228 -50 228 C-50 227.34 -50 226.68 -50 226 C-47.03 225.67 -44.06 225.34 -41 225 C-41 225.66 -41 226.32 -41 227 C-41.66 227 -42.32 227 -43 227 C-42.67 227.99 -42.34 228.98 -42 230 C-42.33 230.99 -42.66 231.98 -43 233 C-41.9275 233.12375 -40.855 233.2475 -39.75 233.375 C-36.62136385 233.89643936 -34.66519576 234.40088254 -32 236 C-32.99 236 -33.98 236 -35 236 C-34.67 237.32 -34.34 238.64 -34 240 C-40.75 240.125 -40.75 240.125 -43 239 C-44.66967972 239.6590841 -46.33607955 240.32650839 -48 241 C-49.32 241 -50.64 241 -52 241 C-52.33 241.66 -52.66 242.32 -53 243 C-52.34 243.33 -51.68 243.66 -51 244 C-51.66 244.99 -52.32 245.98 -53 247 C-52.34 247.33 -51.68 247.66 -51 248 C-51.33 249.65 -51.66 251.3 -52 253 C-55.91970218 253.28680748 -57.87248879 253.0649148 -61.4375 251.25 C-64.96032024 249.58196974 -64.96032024 249.58196974 -68.25 251.25 C-72.28835696 253.99572614 -75.9958508 257.214418 -79.7421875 260.33984375 C-83.59874593 263.52351944 -87.57278103 266.54842307 -91.5625 269.5625 C-92.26560303 270.09939453 -92.96870605 270.63628906 -93.69311523 271.18945312 C-94.35255127 271.68509766 -95.0119873 272.18074219 -95.69140625 272.69140625 C-96.28123291 273.13685791 -96.87105957 273.58230957 -97.47875977 274.04125977 C-99 275 -99 275 -101 275 C-101 275.66 -101 276.32 -101 277 C-101.99 277 -102.98 277 -104 277 C-104.33 277.99 -104.66 278.98 -105 280 C-106.8125 281.31640625 -106.8125 281.31640625 -109 282.5625 C-112.08502827 284.21374548 -112.08502827 284.21374548 -114 287 C-114.99 287.33 -115.98 287.66 -117 288 C-117.33 288.66 -117.66 289.32 -118 290 C-118.99 290 -119.98 290 -121 290 C-119.3970994 286.53115871 -117.36938313 283.50816798 -115.1875 280.375 C-114.80440674 279.82448975 -114.42131348 279.27397949 -114.02661133 278.70678711 C-109.92720491 272.84417785 -105.72782389 267.0528909 -101.51831055 261.26904297 C-100.99019775 260.54217285 -100.46208496 259.81530273 -99.91796875 259.06640625 C-99.41571777 258.37562988 -98.9134668 257.68485352 -98.39599609 256.97314453 C-97.1187414 255.1678328 -95.92206633 253.33210751 -94.73828125 251.46484375 C-94.16464844 250.65144531 -93.59101563 249.83804688 -93 249 C-92.34 249 -91.68 249 -91 249 C-90.9071875 248.195625 -90.9071875 248.195625 -90.8125 247.375 C-89.97833234 244.93666375 -89.10339385 243.79501325 -87.4375 241.875 C-84.78443825 239.37395127 -84.78443825 239.37395127 -85 237 C-86.87985537 235.28848303 -86.87985537 235.28848303 -89.25 233.5625 C-90.03890625 232.96566406 -90.8278125 232.36882812 -91.640625 231.75390625 C-93.17536732 230.61301336 -94.72696508 229.49433891 -96.296875 228.40234375 C-96.85890625 227.93957031 -97.4209375 227.47679687 -98 227 C-98 226.34 -98 225.68 -98 225 C-98.66 225 -99.32 225 -100 225 C-109.41604196 216.14571054 -117.25408461 204.49183077 -123 193 C-123.50144531 192.07960938 -124.00289062 191.15921875 -124.51953125 190.2109375 C-140.14797774 160.85319751 -142.31077572 123.66332785 -132.79248047 92.09228516 C-128.49048974 78.73424769 -122.38590047 65.33084196 -114 54 C-113.34 54 -112.68 54 -112 54 C-111.773125 53.29488281 -111.54625 52.58976562 -111.3125 51.86328125 C-109.70705085 48.36091748 -107.60671731 46.01775847 -105 43.1875 C-104.113125 42.21167969 -103.22625 41.23585937 -102.3125 40.23046875 C-100 38 -100 38 -98 38 C-97.67 37.01 -97.34 36.02 -97 35 C-94.671875 32.80859375 -94.671875 32.80859375 -91.75 30.4375 C-90.79609375 29.65246094 -89.8421875 28.86742188 -88.859375 28.05859375 C-86.25696635 26.18500173 -84.02038092 25.01965414 -81 24 C-81 23.34 -81 22.68 -81 22 C-69.1601767 13.64377462 -54.92924273 7.68816156 -41 4 C-39.95328125 3.71253906 -38.9065625 3.42507812 -37.828125 3.12890625 C-25.43259993 -0.03044099 -12.73751617 -0.33925588 0 0 Z M48 17 C48.66 17.66 49.32 18.32 50 19 C49.34 19 48.68 19 48 19 C48 18.34 48 17.68 48 17 Z " fill="#963F95" transform="translate(299,71)"/>
<path d="M0 0 C-1.30247724 3.42717174 -2.7939438 6.58185602 -4.609375 9.765625 C-5.11726562 10.65636719 -5.62515625 11.54710937 -6.1484375 12.46484375 C-6.67695313 13.38394531 -7.20546875 14.30304687 -7.75 15.25 C-8.26304687 16.15363281 -8.77609375 17.05726562 -9.3046875 17.98828125 C-12.25724088 23.14412194 -15.34775851 28.14308774 -18.71801758 33.03686523 C-20.33482735 35.51273028 -21.59406589 38.08306942 -22.8515625 40.75390625 C-24.88601304 44.73284863 -27.33085399 48.48333872 -29.70703125 52.265625 C-31.13498504 54.80388581 -31.13498504 54.80388581 -31.04296875 57.04296875 C-29.46324529 60.00716895 -27.02290593 61.92252828 -24.5 64.0625 C-15.9198372 71.6344361 -9.07060785 80.31431106 -3 90 C-2.52046875 90.7321875 -2.0409375 91.464375 -1.546875 92.21875 C16.672225 120.98575 21.08804949 156.4942202 14.33203125 189.5078125 C10.40891635 206.66804258 2.76986311 222.43651247 -7 237 C-7.73476563 238.10988281 -7.73476563 238.10988281 -8.484375 239.2421875 C-9.59624757 240.87075379 -10.78935507 242.44345652 -12 244 C-12.66 244 -13.32 244 -14 244 C-14.3403125 244.804375 -14.3403125 244.804375 -14.6875 245.625 C-18.81016459 253.08505973 -25.40264376 257.8218925 -32 263 C-32.89589844 263.73476563 -33.79179687 264.46953125 -34.71484375 265.2265625 C-61.9039922 286.81009409 -97.09124623 295.01143362 -131.25219727 291.171875 C-155.91309495 288.08690505 -155.91309495 288.08690505 -162 282 C-161.34 282 -160.68 282 -160 282 C-160.185625 281.443125 -160.37125 280.88625 -160.5625 280.3125 C-161.08006206 277.57681481 -160.60752255 275.70010024 -160 273 C-160 271.68 -160 270.36 -160 269 C-157.92446352 268.4465236 -156.15634036 268 -154 268 C-153.319375 267.814375 -152.63875 267.62875 -151.9375 267.4375 C-151.298125 267.293125 -150.65875 267.14875 -150 267 C-149.67 267.33 -149.34 267.66 -149 268 C-147.00041636 268.04080783 -144.99954746 268.04254356 -143 268 C-143 267.01 -143 266.02 -143 265 C-141.1128125 264.9690625 -141.1128125 264.9690625 -139.1875 264.9375 C-138.47980469 264.92589844 -137.77210938 264.91429687 -137.04296875 264.90234375 C-135 265 -135 265 -132 266 C-129.52849649 266.13258158 -127.08615589 266.21218207 -124.61328125 266.23828125 C-123.8786113 266.246353 -123.14394135 266.25442474 -122.38700867 266.26274109 C-120.82435453 266.2765781 -119.26167022 266.28730198 -117.69897461 266.29516602 C-116.1311735 266.30655362 -114.56340692 266.32678874 -112.99584961 266.35668945 C-87.59935524 266.840355 -62.27921246 258.10780728 -43.5390625 240.5234375 C-43.03117187 240.02070313 -42.52328125 239.51796875 -42 239 C-41.071875 238.113125 -40.14375 237.22625 -39.1875 236.3125 C-36.98485404 234.08194537 -36.98485404 234.08194537 -35.3125 231.6875 C-34.879375 231.130625 -34.44625 230.57375 -34 230 C-33.34 230 -32.68 230 -32 230 C-31.60361328 229.14535156 -31.60361328 229.14535156 -31.19921875 228.2734375 C-29.92624546 225.86017869 -28.44307499 223.81153763 -26.8125 221.625 C-15.12913989 205.12225384 -8.8129378 186.14561484 -8 166 C-7.95875 165.13246094 -7.9175 164.26492187 -7.875 163.37109375 C-7.17655469 134.77848883 -17.28707674 109.46909025 -36 88 C-36.58265625 87.443125 -37.1653125 86.88625 -37.765625 86.3125 C-39 85 -39 85 -39 83 C-41.33214148 81.79371992 -43.49642139 80.8345262 -46 80 C-47.65 82.97 -49.3 85.94 -51 89 C-51.98816738 86.03549787 -52.07704742 84.08189674 -52 81 C-52 80.01 -52 79.02 -52 78 C-52.66 78 -53.32 78 -54 78 C-54.495 74.535 -54.495 74.535 -55 71 C-60.07476794 69.73694665 -64.72796354 68.72963916 -70 69 C-70.33 69.66 -70.66 70.32 -71 71 C-71.66 71 -72.32 71 -73 71 C-73.061875 71.598125 -73.12375 72.19625 -73.1875 72.8125 C-74.31851737 75.85754676 -76.24324095 76.44490515 -79 78 C-79 78.66 -79 79.32 -79 80 C-79.66 80 -80.32 80 -81 80 C-80.67 81.98 -80.34 83.96 -80 86 C-80.66 86 -81.32 86 -82 86 C-82.66 85.01 -83.32 84.02 -84 83 C-86.0245738 84.93254772 -87.42105792 86.63158688 -89 89 C-90.485 88.505 -90.485 88.505 -92 88 C-92.495 89.485 -92.495 89.485 -93 91 C-94.31337396 92.0260734 -95.64664105 93.02727325 -97 94 C-97.33 94.66 -97.66 95.32 -98 96 C-100.9375 97.6875 -100.9375 97.6875 -104 99 C-104.99 98.505 -104.99 98.505 -106 98 C-104.38113585 96.32737283 -102.7547271 94.66204463 -101.125 93 C-100.22007812 92.071875 -99.31515625 91.14375 -98.3828125 90.1875 C-96 88 -96 88 -94 88 C-93.505 86.515 -93.505 86.515 -93 85 C-91.2578125 83.28125 -91.2578125 83.28125 -89.125 81.5 C-86.14615469 78.99734679 -86.14615469 78.99734679 -83.3671875 76.28125 C-82 75 -82 75 -80 75 C-79.01 73.02 -79.01 73.02 -78 71 C-77.34 71 -76.68 71 -76 71 C-75.505 69.515 -75.505 69.515 -75 68 C-73.37347684 66.29413425 -71.70993434 64.6222454 -70 63 C-74.95 61.02 -74.95 61.02 -80 59 C-80 57 -80 57 -78.5 55.375 C-78.005 54.92125 -77.51 54.4675 -77 54 C-75.515 54.495 -75.515 54.495 -74 55 C-74 55.99 -74 56.98 -74 58 C-73.34 58.33 -72.68 58.66 -72 59 C-71.505 58.01 -71.505 58.01 -71 57 C-70.34 57 -69.68 57 -69 57 C-69 56.34 -69 55.68 -69 55 C-68.236875 55.20625 -67.47375 55.4125 -66.6875 55.625 C-63.78114056 56.33391203 -63.78114056 56.33391203 -61 54 C-61.185625 53.38125 -61.37125 52.7625 -61.5625 52.125 C-62 50 -62 50 -61 48 C-62.305239 45.38952199 -63.35826574 45.31933577 -66.0625 44.375 C-66.79597656 44.11460938 -67.52945313 43.85421875 -68.28515625 43.5859375 C-68.85105469 43.39257812 -69.41695313 43.19921875 -70 43 C-70 42.01 -70 41.02 -70 40 C-71.32 39.34 -72.64 38.68 -74 38 C-74 37.34 -74 36.68 -74 36 C-67.04173583 37.09867329 -61.40765232 39.51332454 -55.23022461 42.78735352 C-51.58413871 44.708505 -51.58413871 44.708505 -47.62890625 44.3359375 C-45.70459973 42.75772927 -44.91784819 41.29462047 -44 39 C-43.34 39 -42.68 39 -42 39 C-42 38.34 -42 37.68 -42 37 C-40.49609375 35.51953125 -40.49609375 35.51953125 -38.4375 33.8125 C-34.89003826 30.81322507 -31.63477128 27.66004868 -28.4453125 24.28515625 C-27 23 -27 23 -25 23 C-24.67 22.01 -24.34 21.02 -24 20 C-23.34 20 -22.68 20 -22 20 C-22 19.34 -22 18.68 -22 18 C-21.34 18 -20.68 18 -20 18 C-20 17.34 -20 16.68 -20 16 C-18.35546875 14.37890625 -18.35546875 14.37890625 -16.1875 12.5625 C-13.17536735 10.02660668 -13.17536735 10.02660668 -10.36328125 7.27734375 C-9 6 -9 6 -7 6 C-6.67 5.01 -6.34 4.02 -6 3 C-5.34 3 -4.68 3 -4 3 C-4 2.34 -4 1.68 -4 1 C-2 0 -2 0 0 0 Z M-60 46 C-60 46.66 -60 47.32 -60 48 C-59.34 47.67 -58.68 47.34 -58 47 C-58.66 46.67 -59.32 46.34 -60 46 Z M-51 48 C-51.87011719 48.88751953 -51.87011719 48.88751953 -52.7578125 49.79296875 C-57.01419481 54.09851719 -61.25962383 58.23200869 -66 62 C-63.30013396 65.0869436 -59.92464868 66.99476277 -56.4375 69.0625 C-50.25506757 72.74493243 -50.25506757 72.74493243 -48 75 C-46.01834002 75.20385129 -46.01834002 75.20385129 -44 74 C-42.42491776 71.71481575 -41.10709869 69.55874838 -39.8125 67.125 C-39.45736328 66.48691406 -39.10222656 65.84882812 -38.73632812 65.19140625 C-37.25233655 62.49375173 -35.97535951 59.92607854 -35 57 C-36.53476782 55.86560639 -38.0781821 54.74290674 -39.625 53.625 C-40.48351562 52.99851562 -41.34203125 52.37203125 -42.2265625 51.7265625 C-45.09235812 49.94250382 -47.76847942 48.93818339 -51 48 Z " fill="#C34695" transform="translate(407,42)"/>
<path d="M0 0 C-1.30247724 3.42717174 -2.7939438 6.58185602 -4.609375 9.765625 C-5.37121094 11.10173828 -5.37121094 11.10173828 -6.1484375 12.46484375 C-6.67695313 13.38394531 -7.20546875 14.30304687 -7.75 15.25 C-8.51957031 16.60544922 -8.51957031 16.60544922 -9.3046875 17.98828125 C-12.25724088 23.14412194 -15.34775851 28.14308774 -18.71801758 33.03686523 C-20.33482735 35.51273028 -21.59406589 38.08306942 -22.8515625 40.75390625 C-24.88601304 44.73284863 -27.33085399 48.48333872 -29.70703125 52.265625 C-31.18121922 54.82652365 -31.18121922 54.82652365 -30.890625 57.1875 C-29.85376113 59.29760893 -28.79765691 60.32519896 -26.9375 61.75 C-25.968125 62.4925 -24.99875 63.235 -24 64 C-25 66 -25 66 -26.9375 66.6875 C-29 67 -29 67 -31 66 C-31 66.66 -31 67.32 -31 68 C-33.8125 68.625 -33.8125 68.625 -37 69 C-38.485 68.01 -38.485 68.01 -40 67 C-42.32086397 72.324335 -41.91457003 76.43842552 -41 82 C-42.65 81.34 -44.3 80.68 -46 80 C-47.65 82.97 -49.3 85.94 -51 89 C-51.98816738 86.03549787 -52.07704742 84.08189674 -52 81 C-52 80.01 -52 79.02 -52 78 C-52.66 78 -53.32 78 -54 78 C-54.495 74.535 -54.495 74.535 -55 71 C-60.07476794 69.73694665 -64.72796354 68.72963916 -70 69 C-70.33 69.66 -70.66 70.32 -71 71 C-71.66 71 -72.32 71 -73 71 C-73.061875 71.598125 -73.12375 72.19625 -73.1875 72.8125 C-74.31851737 75.85754676 -76.24324095 76.44490515 -79 78 C-79 78.66 -79 79.32 -79 80 C-79.66 80 -80.32 80 -81 80 C-80.67 81.98 -80.34 83.96 -80 86 C-80.66 86 -81.32 86 -82 86 C-82.66 85.01 -83.32 84.02 -84 83 C-86.0245738 84.93254772 -87.42105792 86.63158688 -89 89 C-90.485 88.505 -90.485 88.505 -92 88 C-92.33 88.99 -92.66 89.98 -93 91 C-94.31337396 92.0260734 -95.64664105 93.02727325 -97 94 C-97.495 94.99 -97.495 94.99 -98 96 C-100.9375 97.6875 -100.9375 97.6875 -104 99 C-104.66 98.67 -105.32 98.34 -106 98 C-104.38113585 96.32737283 -102.7547271 94.66204463 -101.125 93 C-100.22007812 92.071875 -99.31515625 91.14375 -98.3828125 90.1875 C-96 88 -96 88 -94 88 C-93.67 87.01 -93.34 86.02 -93 85 C-91.2578125 83.28125 -91.2578125 83.28125 -89.125 81.5 C-86.14615469 78.99734679 -86.14615469 78.99734679 -83.3671875 76.28125 C-82 75 -82 75 -80 75 C-79.34 73.68 -78.68 72.36 -78 71 C-77.34 71 -76.68 71 -76 71 C-75.505 69.515 -75.505 69.515 -75 68 C-73.37347684 66.29413425 -71.70993434 64.6222454 -70 63 C-73.3 61.68 -76.6 60.36 -80 59 C-80 57 -80 57 -78.5 55.375 C-78.005 54.92125 -77.51 54.4675 -77 54 C-75.515 54.495 -75.515 54.495 -74 55 C-74 55.99 -74 56.98 -74 58 C-73.01 58.495 -73.01 58.495 -72 59 C-71.505 58.01 -71.505 58.01 -71 57 C-70.34 57 -69.68 57 -69 57 C-69 56.34 -69 55.68 -69 55 C-68.236875 55.20625 -67.47375 55.4125 -66.6875 55.625 C-63.78114056 56.33391203 -63.78114056 56.33391203 -61 54 C-61.185625 53.38125 -61.37125 52.7625 -61.5625 52.125 C-62 50 -62 50 -61 48 C-62.305239 45.38952199 -63.35826574 45.31933577 -66.0625 44.375 C-66.79597656 44.11460938 -67.52945313 43.85421875 -68.28515625 43.5859375 C-68.85105469 43.39257812 -69.41695313 43.19921875 -70 43 C-70 42.01 -70 41.02 -70 40 C-71.32 39.34 -72.64 38.68 -74 38 C-74 37.34 -74 36.68 -74 36 C-67.04173583 37.09867329 -61.40765232 39.51332454 -55.23022461 42.78735352 C-51.58413871 44.708505 -51.58413871 44.708505 -47.62890625 44.3359375 C-45.70459973 42.75772927 -44.91784819 41.29462047 -44 39 C-43.34 39 -42.68 39 -42 39 C-42 38.34 -42 37.68 -42 37 C-40.49609375 35.51953125 -40.49609375 35.51953125 -38.4375 33.8125 C-34.89003826 30.81322507 -31.63477128 27.66004868 -28.4453125 24.28515625 C-27 23 -27 23 -25 23 C-24.505 21.515 -24.505 21.515 -24 20 C-23.34 20 -22.68 20 -22 20 C-22 19.34 -22 18.68 -22 18 C-21.34 18 -20.68 18 -20 18 C-20 17.34 -20 16.68 -20 16 C-18.35546875 14.37890625 -18.35546875 14.37890625 -16.1875 12.5625 C-13.17536735 10.02660668 -13.17536735 10.02660668 -10.36328125 7.27734375 C-9 6 -9 6 -7 6 C-6.67 5.01 -6.34 4.02 -6 3 C-5.34 3 -4.68 3 -4 3 C-4 2.34 -4 1.68 -4 1 C-2 0 -2 0 0 0 Z M-60 46 C-60 46.66 -60 47.32 -60 48 C-59.34 47.67 -58.68 47.34 -58 47 C-58.66 46.67 -59.32 46.34 -60 46 Z M-51 48 C-51.87011719 48.88751953 -51.87011719 48.88751953 -52.7578125 49.79296875 C-57.01419481 54.09851719 -61.25962383 58.23200869 -66 62 C-63.30013396 65.0869436 -59.92464868 66.99476277 -56.4375 69.0625 C-50.25506757 72.74493243 -50.25506757 72.74493243 -48 75 C-46.01834002 75.20385129 -46.01834002 75.20385129 -44 74 C-42.42491776 71.71481575 -41.10709869 69.55874838 -39.8125 67.125 C-39.45736328 66.48691406 -39.10222656 65.84882812 -38.73632812 65.19140625 C-37.25233655 62.49375173 -35.97535951 59.92607854 -35 57 C-36.53476782 55.86560639 -38.0781821 54.74290674 -39.625 53.625 C-40.48351562 52.99851562 -41.34203125 52.37203125 -42.2265625 51.7265625 C-45.09235812 49.94250382 -47.76847942 48.93818339 -51 48 Z " fill="#D34C96" transform="translate(407,42)"/>
<path d="M0 0 C0 0.66 0 1.32 0 2 C-0.66 2 -1.32 2 -2 2 C-1.505 3.485 -1.505 3.485 -1 5 C-1.33 5.99 -1.66 6.98 -2 8 C-0.9275 8.12375 0.145 8.2475 1.25 8.375 C4.37863615 8.89643936 6.33480424 9.40088254 9 11 C8.01 11 7.02 11 6 11 C6.495 12.98 6.495 12.98 7 15 C0.25 15.125 0.25 15.125 -2 14 C-3.66967972 14.6590841 -5.33607955 15.32650839 -7 16 C-8.32 16 -9.64 16 -11 16 C-11.33 16.66 -11.66 17.32 -12 18 C-11.34 18.33 -10.68 18.66 -10 19 C-10.99 20.485 -10.99 20.485 -12 22 C-11.34 22.33 -10.68 22.66 -10 23 C-10.495 25.475 -10.495 25.475 -11 28 C-14.91970218 28.28680748 -16.87248879 28.0649148 -20.4375 26.25 C-23.96032024 24.58196974 -23.96032024 24.58196974 -27.25 26.25 C-31.28835696 28.99572614 -34.9958508 32.214418 -38.7421875 35.33984375 C-42.59874593 38.52351944 -46.57278103 41.54842307 -50.5625 44.5625 C-51.61715454 45.3678418 -51.61715454 45.3678418 -52.69311523 46.18945312 C-53.35255127 46.68509766 -54.0119873 47.18074219 -54.69140625 47.69140625 C-55.28123291 48.13685791 -55.87105957 48.58230957 -56.47875977 49.04125977 C-58 50 -58 50 -60 50 C-60 50.66 -60 51.32 -60 52 C-60.99 52 -61.98 52 -63 52 C-63.33 52.99 -63.66 53.98 -64 55 C-65.8125 56.31640625 -65.8125 56.31640625 -68 57.5625 C-71.08502827 59.21374548 -71.08502827 59.21374548 -73 62 C-74.485 62.495 -74.485 62.495 -76 63 C-76.495 63.99 -76.495 63.99 -77 65 C-77.99 65 -78.98 65 -80 65 C-78.3970994 61.53115871 -76.36938313 58.50816798 -74.1875 55.375 C-73.80440674 54.82448975 -73.42131348 54.27397949 -73.02661133 53.70678711 C-68.92720491 47.84417785 -64.72782389 42.0528909 -60.51831055 36.26904297 C-59.99019775 35.54217285 -59.46208496 34.81530273 -58.91796875 34.06640625 C-58.41571777 33.37562988 -57.9134668 32.68485352 -57.39599609 31.97314453 C-56.1187414 30.1678328 -54.92206633 28.33210751 -53.73828125 26.46484375 C-53.16464844 25.65144531 -52.59101563 24.83804687 -52 24 C-51.34 24 -50.68 24 -50 24 C-49.9175 23.443125 -49.835 22.88625 -49.75 22.3125 C-48.7003763 19.07616025 -47.47934374 17.35219791 -45 15 C-40.99159144 13.79747743 -38.69356034 13.20468161 -34.87890625 14.99609375 C-33.5435447 15.84678722 -32.23296564 16.73830524 -30.95703125 17.67578125 C-30.31121094 18.11277344 -29.66539062 18.54976563 -29 19 C-28.26523438 19.50660156 -27.53046875 20.01320313 -26.7734375 20.53515625 C-23.35569946 21.1079884 -22.83376399 20.52667108 -20.08203125 18.5703125 C-18.64446375 17.43994027 -17.22166415 16.29058917 -15.8125 15.125 C-14.38450805 13.97802873 -12.95365522 12.83460726 -11.51953125 11.6953125 C-10.89151611 11.17984863 -10.26350098 10.66438477 -9.61645508 10.13330078 C-8 9 -8 9 -6 9 C-6 8.34 -6 7.68 -6 7 C-6.61875 6.855625 -7.2375 6.71125 -7.875 6.5625 C-10 6 -10 6 -12 5 C-12 4.34 -12 3.68 -12 3 C-11.01 3 -10.02 3 -9 3 C-9 2.34 -9 1.68 -9 1 C-5.8035914 -0.06546953 -3.34252724 -0.07427838 0 0 Z " fill="#733F96" transform="translate(258,296)"/>
<path d="M0 0 C6.95826417 1.09867329 12.59234768 3.51332454 18.76977539 6.78735352 C22.42382119 8.71144719 22.42382119 8.71144719 26.38671875 8.328125 C28.13196911 7.07463977 28.13196911 7.07463977 29 5 C29.495 6.485 29.495 6.485 30 8 C29.34 8.66 28.68 9.32 28 10 C29.39195915 12.7839183 31.15575779 12.97898997 34 14 C34 14.66 34 15.32 34 16 C35.485 16.495 35.485 16.495 37 17 C36.34 17.66 35.68 18.32 35 19 C34.32453125 18.54367188 33.6490625 18.08734375 32.953125 17.6171875 C32.06109375 17.04226562 31.1690625 16.46734375 30.25 15.875 C29.36828125 15.29492188 28.4865625 14.71484375 27.578125 14.1171875 C25.11669112 12.72795969 25.11669112 12.72795969 22.8984375 13.59375 C20.8340769 15.122906 19.12854239 16.74785991 17.375 18.625 C15.5859375 20.5390625 15.5859375 20.5390625 14 22 C13.34 22 12.68 22 12 22 C11.505 23.485 11.505 23.485 11 25 C10.34 25.66 9.68 26.32 9 27 C9.97582031 27.54269531 10.95164062 28.08539063 11.95703125 28.64453125 C13.24233367 29.3669275 14.52748187 30.08959818 15.8125 30.8125 C16.45509766 31.16892578 17.09769531 31.52535156 17.75976562 31.89257812 C20.91772925 33.67609126 23.45124918 35.45124918 26 38 C26.99 38 27.98 38 29 38 C30.32 35.69 31.64 33.38 33 31 C33.495 31.99 33.495 31.99 34 33 C33.52433594 33.90492187 33.52433594 33.90492187 33.0390625 34.828125 C31.77860283 37.46277002 31.95447286 38.89041545 32.375 41.75 C32.48585938 42.54921875 32.59671875 43.3484375 32.7109375 44.171875 C32.80632812 44.77515625 32.90171875 45.3784375 33 46 C31.35 45.34 29.7 44.68 28 44 C26.35 46.97 24.7 49.94 23 53 C22.01183262 50.03549787 21.92295258 48.08189674 22 45 C22 44.01 22 43.02 22 42 C21.34 42 20.68 42 20 42 C19.505 38.535 19.505 38.535 19 35 C13.92523206 33.73694665 9.27203646 32.72963916 4 33 C3.505 33.99 3.505 33.99 3 35 C2.34 35 1.68 35 1 35 C0.9071875 35.8971875 0.9071875 35.8971875 0.8125 36.8125 C-0.31851737 39.85754676 -2.24324095 40.44490515 -5 42 C-5 42.66 -5 43.32 -5 44 C-5.66 44 -6.32 44 -7 44 C-6.67 45.98 -6.34 47.96 -6 50 C-6.66 50 -7.32 50 -8 50 C-8.66 49.01 -9.32 48.02 -10 47 C-12.0245738 48.93254772 -13.42105792 50.63158688 -15 53 C-16.485 52.505 -16.485 52.505 -18 52 C-18.33 52.99 -18.66 53.98 -19 55 C-20.31337396 56.0260734 -21.64664105 57.02727325 -23 58 C-23.33 58.66 -23.66 59.32 -24 60 C-26.9375 61.6875 -26.9375 61.6875 -30 63 C-30.66 62.67 -31.32 62.34 -32 62 C-30.38113585 60.32737283 -28.7547271 58.66204463 -27.125 57 C-26.22007812 56.071875 -25.31515625 55.14375 -24.3828125 54.1875 C-22 52 -22 52 -20 52 C-19.67 51.01 -19.34 50.02 -19 49 C-17.2578125 47.28125 -17.2578125 47.28125 -15.125 45.5 C-12.14615469 42.99734679 -12.14615469 42.99734679 -9.3671875 40.28125 C-8 39 -8 39 -6 39 C-5.34 37.68 -4.68 36.36 -4 35 C-3.34 35 -2.68 35 -2 35 C-1.67 34.01 -1.34 33.02 -1 32 C0.62652316 30.29413425 2.29006566 28.6222454 4 27 C0.7 25.68 -2.6 24.36 -6 23 C-6 21 -6 21 -4.5 19.375 C-4.005 18.92125 -3.51 18.4675 -3 18 C-2.01 18.33 -1.02 18.66 0 19 C0 19.99 0 20.98 0 22 C0.66 22.33 1.32 22.66 2 23 C2.33 22.34 2.66 21.68 3 21 C3.66 21 4.32 21 5 21 C5 20.34 5 19.68 5 19 C6.1446875 19.309375 6.1446875 19.309375 7.3125 19.625 C10.21885944 20.33391203 10.21885944 20.33391203 13 18 C12.814375 17.38125 12.62875 16.7625 12.4375 16.125 C12 14 12 14 13 12 C11.694761 9.38952199 10.64173426 9.31933577 7.9375 8.375 C7.20402344 8.11460938 6.47054687 7.85421875 5.71484375 7.5859375 C5.14894531 7.39257812 4.58304687 7.19921875 4 7 C4 6.01 4 5.02 4 4 C2.68 3.34 1.36 2.68 0 2 C0 1.34 0 0.68 0 0 Z M14 10 C14 10.66 14 11.32 14 12 C14.66 11.67 15.32 11.34 16 11 C15.34 10.67 14.68 10.34 14 10 Z " fill="#CA4994" transform="translate(333,78)"/>
<path d="M0 0 C0 0.66 0 1.32 0 2 C-0.66 2 -1.32 2 -2 2 C-1.505 3.485 -1.505 3.485 -1 5 C-1.33 5.99 -1.66 6.98 -2 8 C-0.9275 8.12375 0.145 8.2475 1.25 8.375 C4.37863615 8.89643936 6.33480424 9.40088254 9 11 C8.01 11 7.02 11 6 11 C6.495 12.98 6.495 12.98 7 15 C0.25 15.125 0.25 15.125 -2 14 C-3.66967972 14.6590841 -5.33607955 15.32650839 -7 16 C-8.32 16 -9.64 16 -11 16 C-11.33 16.66 -11.66 17.32 -12 18 C-11.34 18.33 -10.68 18.66 -10 19 C-10.66 19.99 -11.32 20.98 -12 22 C-11.34 22.33 -10.68 22.66 -10 23 C-10.33 24.65 -10.66 26.3 -11 28 C-14.91970218 28.28680748 -16.87248879 28.0649148 -20.4375 26.25 C-23.71562155 24.69396116 -23.71562155 24.69396116 -25.89453125 25.62109375 C-28.03575716 26.81197774 -28.03575716 26.81197774 -31 29 C-31.99 29.66 -32.98 30.32 -34 31 C-34 30.01 -34 29.02 -34 28 C-33.34 28 -32.68 28 -32 28 C-32.33 26.68 -32.66 25.36 -33 24 C-31.68 23.34 -30.36 22.68 -29 22 C-29 21.34 -29 20.68 -29 20 C-28.01580078 20.43119141 -28.01580078 20.43119141 -27.01171875 20.87109375 C-22.16837662 21.07839633 -19.44294899 18.02271225 -15.8125 15.0625 C-14.38459748 13.92450111 -12.95374864 12.79018614 -11.51953125 11.66015625 C-10.89151611 11.15105713 -10.26350098 10.64195801 -9.61645508 10.11743164 C-8 9 -8 9 -6 9 C-6 8.34 -6 7.68 -6 7 C-6.61875 6.855625 -7.2375 6.71125 -7.875 6.5625 C-10 6 -10 6 -12 5 C-12 4.34 -12 3.68 -12 3 C-11.01 3 -10.02 3 -9 3 C-9 2.34 -9 1.68 -9 1 C-5.8035914 -0.06546953 -3.34252724 -0.07427838 0 0 Z " fill="#884B98" transform="translate(258,296)"/>
<path d="M0 0 C0.12375 0.61875 0.2475 1.2375 0.375 1.875 C0.87197356 4.19120832 0.87197356 4.19120832 3 6 C3.598125 5.484375 4.19625 4.96875 4.8125 4.4375 C5.534375 3.963125 6.25625 3.48875 7 3 C10 4 10 4 11 6 C11.66 6.33 12.32 6.66 13 7 C11.04594482 8.50587739 9.08718716 10.00478644 7.125 11.5 C6.56941406 11.92925781 6.01382813 12.35851562 5.44140625 12.80078125 C1.2265625 16 1.2265625 16 -1 16 C-1 16.66 -1 17.32 -1 18 C-1.99 18 -2.98 18 -4 18 C-4.33 18.99 -4.66 19.98 -5 21 C-6.8125 22.31640625 -6.8125 22.31640625 -9 23.5625 C-12.08502827 25.21374548 -12.08502827 25.21374548 -14 28 C-14.99 28.33 -15.98 28.66 -17 29 C-17.33 29.66 -17.66 30.32 -18 31 C-18.99 31 -19.98 31 -21 31 C-19.36181896 27.43354335 -17.24432211 24.33918988 -15 21.125 C-14.41810913 20.29029175 -14.41810913 20.29029175 -13.82446289 19.4387207 C-9.26917133 12.92170756 -4.63797186 6.45830319 0 0 Z " fill="#8053A1" transform="translate(199,330)"/>
<path d="M0 0 C10.31449993 -0.16352394 20.52381261 0.35062399 30.8125 1 C32.391254 1.09671471 33.97002999 1.19307105 35.54882812 1.2890625 C39.36615082 1.52192371 43.18314569 1.75958837 47 2 C45.66544809 5.08594534 44.37427237 6.77005288 41.65625 8.734375 C40.65875732 9.46672363 40.65875732 9.46672363 39.64111328 10.21386719 C38.58126221 10.97425293 38.58126221 10.97425293 37.5 11.75 C36.0484346 12.81107249 34.5979134 13.87357493 33.1484375 14.9375 C32.44041992 15.45570313 31.73240234 15.97390625 31.00292969 16.5078125 C27.51022167 19.10988849 24.16502555 21.88272446 20.8203125 24.671875 C19 26 19 26 17 26 C17.25 24.1875 17.25 24.1875 18 22 C19.32848691 20.99357052 20.66150329 19.99307821 22 19 C22 18.01 22 17.02 22 16 C23.65 16 25.3 16 27 16 C27.144375 15.4225 27.28875 14.845 27.4375 14.25 C27.623125 13.5075 27.80875 12.765 28 12 C28.103125 11.319375 28.20625 10.63875 28.3125 9.9375 C29.23576704 7.33556562 30.72472998 6.46791614 33 5 C32.01 5 31.02 5 30 5 C29.30261719 4.84789062 28.60523438 4.69578125 27.88671875 4.5390625 C23.8770149 3.79029507 19.88098535 3.59579569 15.8125 3.375 C14.58370117 3.29765625 14.58370117 3.29765625 13.33007812 3.21875 C9.03720462 2.82706881 9.03720462 2.82706881 5 4 C5 3.34 5 2.68 5 2 C3.35 1.67 1.7 1.34 0 1 C0 0.67 0 0.34 0 0 Z " fill="#CB4C93" transform="translate(347,194)"/>
<path d="M0 0 C0.66 0.99 1.32 1.98 2 3 C1.34 3 0.68 3 0 3 C-0.268125 3.763125 -0.53625 4.52625 -0.8125 5.3125 C-2.69132681 9.56458173 -4.91159297 11.02309537 -9 13 C3.28705733 14.12338153 15.32784442 13.85142411 27.63867188 13.33129883 C30.07396813 13.23125397 32.50947605 13.14430628 34.9453125 13.05859375 C36.05001389 13.00559364 36.05001389 13.00559364 37.17703247 12.95152283 C41.27864135 12.81282468 44.31613919 13.14815948 48 15 C47.49396008 17.16874252 47.00016187 18.99967627 46 21 C45.34 20.67 44.68 20.34 44 20 C44.495 18.515 44.495 18.515 45 17 C25.53 17 6.06 17 -14 17 C-14 13 -14 13 -12.625 11.25 C-11 10 -11 10 -9 10 C-8.67 9.01 -8.34 8.02 -8 7 C-6.15234375 5.17578125 -6.15234375 5.17578125 -3.9375 3.3125 C-2.83728516 2.37857422 -2.83728516 2.37857422 -1.71484375 1.42578125 C-1.14894531 0.95527344 -0.58304688 0.48476562 0 0 Z " fill="#9D63A3" transform="translate(234,203)"/>
<path d="M0 0 C0.66 0.33 1.32 0.66 2 1 C2.99 0.67 3.98 0.34 5 0 C5.66 0.66 6.32 1.32 7 2 C9.6215642 2.27827252 9.6215642 2.27827252 12.6640625 2.1953125 C14.34628906 2.18564453 14.34628906 2.18564453 16.0625 2.17578125 C17.238125 2.15902344 18.41375 2.14226562 19.625 2.125 C20.80835938 2.11597656 21.99171875 2.10695313 23.2109375 2.09765625 C26.14082523 2.07402812 29.0703134 2.04108514 32 2 C32 2.66 32 3.32 32 4 C32.66 4 33.32 4 34 4 C34 4.66 34 5.32 34 6 C34.99 6.33 35.98 6.66 37 7 C36.22398437 6.9278125 35.44796875 6.855625 34.6484375 6.78125 C17.73966224 5.3284674 1.50085038 5.8747874 -15 10 C-14.67 9.34 -14.34 8.68 -14 8 C-11.67843403 7.59270772 -9.3431213 7.25561323 -7 7 C-7 6.34 -7 5.68 -7 5 C-6.01 5 -5.02 5 -4 5 C-4 4.01 -4 3.02 -4 2 C-2.125 0.9375 -2.125 0.9375 0 0 Z " fill="#B1418F" transform="translate(276,90)"/>
<path d="M0 0 C0.66 0 1.32 0 2 0 C4.40694302 16.57464012 6.67757681 43.48363478 -3 58 C-4.125 53.25 -4.125 53.25 -3 51 C-0.79735428 39.94066463 -0.58467418 28.85567314 -0.375 17.625 C-0.3367042 15.90623275 -0.29764634 14.1874823 -0.2578125 12.46875 C-0.16311479 8.31264079 -0.07864059 4.15644275 0 0 Z " fill="#D27BAF" transform="translate(421,182)"/>
<path d="M0 0 C1 3 1 3 0.0625 5.1875 C-0.288125 5.785625 -0.63875 6.38375 -1 7 C1.475 7.495 1.475 7.495 4 8 C4 8.99 4 9.98 4 11 C3.01 11 2.02 11 1 11 C0.67 11.99 0.34 12.98 0 14 C-1.8125 15.31640625 -1.8125 15.31640625 -4 16.5625 C-7.08502827 18.21374548 -7.08502827 18.21374548 -9 21 C-9.99 21.33 -10.98 21.66 -12 22 C-12.33 22.66 -12.66 23.32 -13 24 C-13.99 24 -14.98 24 -16 24 C-14.30782706 20.28083916 -12.02797032 17.01778122 -9.6875 13.6875 C-9.28668213 13.11298096 -8.88586426 12.53846191 -8.47290039 11.9465332 C-5.67637417 7.94430548 -2.85524513 3.96050131 0 0 Z " fill="#885DA2" transform="translate(194,337)"/>
<path d="M0 0 C0 0.66 0 1.32 0 2 C-0.66 2 -1.32 2 -2 2 C-1.67 2.99 -1.34 3.98 -1 5 C-1.33 5.99 -1.66 6.98 -2 8 C-0.9275 8.12375 0.145 8.2475 1.25 8.375 C4.37863615 8.89643936 6.33480424 9.40088254 9 11 C8.01 11 7.02 11 6 11 C6.33 12.32 6.66 13.64 7 15 C0.25 15.125 0.25 15.125 -2 14 C-2.804375 14.350625 -3.60875 14.70125 -4.4375 15.0625 C-5.283125 15.371875 -6.12875 15.68125 -7 16 C-7.99 15.34 -8.98 14.68 -10 14 C-8.625 12.5 -8.625 12.5 -7 11 C-6.34 11 -5.68 11 -5 11 C-5.57452746 7.06924356 -5.57452746 7.06924356 -8 4 C-10.10820797 4.3185177 -10.10820797 4.3185177 -12 5 C-12 4.34 -12 3.68 -12 3 C-11.01 3 -10.02 3 -9 3 C-9 2.34 -9 1.68 -9 1 C-5.8035914 -0.06546953 -3.34252724 -0.07427838 0 0 Z " fill="#944F9A" transform="translate(258,296)"/>
<path d="M0 0 C0.33 0 0.66 0 1 0 C1.01458252 0.65782471 1.02916504 1.31564941 1.04418945 1.9934082 C1.32269243 13.30968272 1.64050828 24.55714878 3.4375 35.75 C3.55971924 36.51610596 3.68193848 37.28221191 3.80786133 38.0715332 C4.48187954 41.95140801 5.51315302 45.36903034 7 49 C7.07646165 51.3320802 7.09143299 53.66845878 7 56 C5.68 55.67 4.36 55.34 3 55 C3 53.68 3 52.36 3 51 C2.01 51.495 2.01 51.495 1 52 C-0.06717398 49.15420272 0.07096269 47.52621966 0.53125 44.453125 C1.18206629 39.60308575 0.65849952 35.08292993 0.0625 30.25 C-1.07566413 20.02247404 -1.57082773 10.21038023 0 0 Z " fill="#7D4991" transform="translate(184,186)"/>
<path d="M0 0 C-1.28924356 3.40202433 -2.7652076 6.50564554 -4.6015625 9.64453125 C-5.09140625 10.48564453 -5.58125 11.32675781 -6.0859375 12.19335938 C-6.84777344 13.48983398 -6.84777344 13.48983398 -7.625 14.8125 C-8.140625 15.69615234 -8.65625 16.57980469 -9.1875 17.49023438 C-10.45531114 19.66194789 -11.72622348 21.8317818 -13 24 C-13.99 23.67 -14.98 23.34 -16 23 C-15.40072174 19.64404172 -14.15377564 17.62198774 -12 15 C-13.65 15 -15.3 15 -17 15 C-16.0919838 13.86800647 -15.17316174 12.74467637 -14.25 11.625 C-13.48429687 10.68527344 -13.48429687 10.68527344 -12.703125 9.7265625 C-11 8 -11 8 -8.859375 6.9609375 C-6.64209631 6.08895682 -6.64209631 6.08895682 -6 3 C-5.34 3 -4.68 3 -4 3 C-4 2.34 -4 1.68 -4 1 C-2 0 -2 0 0 0 Z " fill="#D268A4" transform="translate(407,42)"/>
<path d="M0 0 C0.33 0.66 0.66 1.32 1 2 C0.68289063 2.60328125 0.36578125 3.2065625 0.0390625 3.828125 C-1.22139717 6.46277002 -1.04552714 7.89041545 -0.625 10.75 C-0.51414062 11.54921875 -0.40328125 12.3484375 -0.2890625 13.171875 C-0.19367188 13.77515625 -0.09828125 14.3784375 0 15 C-2.475 14.01 -2.475 14.01 -5 13 C-6.65 15.97 -8.3 18.94 -10 22 C-10.98816738 19.03549787 -11.07704742 17.08189674 -11 14 C-11 13.01 -11 12.02 -11 11 C-11.66 11 -12.32 11 -13 11 C-13.66 8.03 -14.32 5.06 -15 2 C-11.54081981 3.21538764 -9.55967074 4.44032926 -7 7 C-6.01 7 -5.02 7 -4 7 C-2.68 4.69 -1.36 2.38 0 0 Z " fill="#CC5D9E" transform="translate(366,109)"/>
<path d="M0 0 C0.8353125 1.0828125 0.8353125 1.0828125 1.6875 2.1875 C3.97909334 4.97457299 6.41459857 7.48641528 9 10 C6.625 11.0625 6.625 11.0625 4 12 C3.34 11.67 2.68 11.34 2 11 C2 11.66 2 12.32 2 13 C-0.8125 13.625 -0.8125 13.625 -4 14 C-4.99 13.34 -5.98 12.68 -7 12 C-5.66749209 8.4124787 -4.169283 5.1635377 -2 2 C-1.34 2 -0.68 2 0 2 C0 1.34 0 0.68 0 0 Z " fill="#D25499" transform="translate(374,97)"/>
<path d="M0 0 C2.14762184 3.22143276 2.561068 4.2595467 2 8 C-0.9996445 11.23961606 -4.81916326 11.95479081 -9 13 C-9 14.32 -9 15.64 -9 17 C-11.8919594 17.96398647 -13.9994375 18 -17 18 C-17 18.66 -17 19.32 -17 20 C-17.66 20 -18.32 20 -19 20 C-18.505 18.515 -18.505 18.515 -18 17 C-17.34 17 -16.68 17 -16 17 C-15.67 16.01 -15.34 15.02 -15 14 C-13.3984375 12.421875 -13.3984375 12.421875 -11.375 10.75 C-7.36917659 7.35878848 -3.6577926 3.76066802 0 0 Z " fill="#A3599B" transform="translate(292,148)"/>
<path d="M0 0 C10.31449993 -0.16352394 20.52381261 0.35062399 30.8125 1 C32.391254 1.09671471 33.97002999 1.19307105 35.54882812 1.2890625 C39.36615082 1.52192371 43.18314569 1.75958837 47 2 C46.67 2.99 46.34 3.98 46 5 C45.34 5 44.68 5 44 5 C44 4.34 44 3.68 44 3 C39.38 3 34.76 3 30 3 C29.67 3.66 29.34 4.32 29 5 C28.42781738 4.84225098 27.85563477 4.68450195 27.26611328 4.52197266 C23.51113556 3.65705751 19.71372544 3.58118746 15.875 3.375 C15.05128906 3.3234375 14.22757812 3.271875 13.37890625 3.21875 C9.06123763 2.82408833 9.06123763 2.82408833 5 4 C5 3.34 5 2.68 5 2 C3.35 1.67 1.7 1.34 0 1 C0 0.67 0 0.34 0 0 Z " fill="#BB4A8C" transform="translate(347,194)"/>
<path d="M0 0 C0.66 0.33 1.32 0.66 2 1 C1.67 1.66 1.34 2.32 1 3 C4.465 2.505 4.465 2.505 8 2 C8 1.34 8 0.68 8 0 C8.99 0 9.98 0 11 0 C9.59023295 3.03852705 7.91129772 5.5939595 5.875 8.25 C5.33617187 8.95640625 4.79734375 9.6628125 4.2421875 10.390625 C3.83226562 10.92171875 3.42234375 11.4528125 3 12 C3.33 12.66 3.66 13.32 4 14 C2.35 14.33 0.7 14.66 -1 15 C-1 14.01 -1 13.02 -1 12 C-1.66 11.67 -2.32 11.34 -3 11 C-1.48648649 1.48648649 -1.48648649 1.48648649 0 0 Z " fill="#833F96" transform="translate(215,296)"/>
<path d="M0 0 C0.66 0.33 1.32 0.66 2 1 C2.625 4.0625 2.625 4.0625 3 7 C3.66 7 4.32 7 5 7 C5.36351562 7.70125 5.72703125 8.4025 6.1015625 9.125 C9.00086726 14.59650847 11.99514778 19.62734893 15.8984375 24.44140625 C17 26 17 26 17 28 C17.66 28 18.32 28 19 28 C18.67 28.66 18.34 29.32 18 30 C17.34 30 16.68 30 16 30 C16 29.01 16 28.02 16 27 C15.236875 26.979375 14.47375 26.95875 13.6875 26.9375 C11 26 11 26 9.3125 22.6875 C8.6628125 20.8621875 8.6628125 20.8621875 8 19 C7.62875 18.2575 7.2575 17.515 6.875 16.75 C6 15 6 15 5 12 C4.34 12 3.68 12 3 12 C3 11.01 3 10.02 3 9 C2.34 9 1.68 9 1 9 C1 8.34 1 7.68 1 7 C0.34 7 -0.32 7 -1 7 C-0.67 4.69 -0.34 2.38 0 0 Z " fill="#9C6FAA" transform="translate(193,244)"/>
<path d="M0 0 C0.66 1.32 1.32 2.64 2 4 C2.66 3.67 3.32 3.34 4 3 C4 9.27 4 15.54 4 22 C4.66 22 5.32 22 6 22 C6.33 24.64 6.66 27.28 7 30 C7.66 30 8.32 30 9 30 C9.99 33.3 10.98 36.6 12 40 C10.515 40.495 10.515 40.495 9 41 C3.20187451 28.44767514 -0.2382915 13.82090672 0 0 Z " fill="#8D65A5" transform="translate(162,213)"/>
<path d="M0 0 C3.06209551 0.84706617 6.0318674 1.86928282 9 3 C8.67 3.99 8.34 4.98 8 6 C6.96875 5.67 5.9375 5.34 4.875 5 C1.51573291 4.0284808 -1.49106202 3.82883229 -5 4 C-5.33 4.66 -5.66 5.32 -6 6 C-6.66 6 -7.32 6 -8 6 C-8.33 7.32 -8.66 8.64 -9 10 C-10.98 10 -12.96 10 -15 10 C-14.34 8.68 -13.68 7.36 -13 6 C-12.34 6 -11.68 6 -11 6 C-10.67 5.01 -10.34 4.02 -10 3 C-7.38870376 -0.91694436 -4.40355928 -0.4261509 0 0 Z " fill="#C34C92" transform="translate(342,107)"/>
<path d="M0 0 C0.66 0.33 1.32 0.66 2 1 C2.33 1.99 2.66 2.98 3 4 C1.42040347 5.29623379 -0.16383413 6.58681327 -1.75 7.875 C-2.63171875 8.59429687 -3.5134375 9.31359375 -4.421875 10.0546875 C-6.58176924 11.68442588 -8.539766 12.90784005 -11 14 C-11.33 11.69 -11.66 9.38 -12 7 C-10.33333333 7 -8.66666667 7 -7 7 C-5.29115995 5.37660195 -3.62553283 3.70680947 -2 2 C-1.34 1.34 -0.68 0.68 0 0 Z " fill="#B64E99" transform="translate(349,226)"/>
<path d="M0 0 C2.33944736 0.28730055 4.6739143 0.61936779 7 1 C3.89097662 4.27383908 0.54785308 6.98085364 -3.0625 9.6875 C-4.10535156 10.47511719 -5.14820313 11.26273438 -6.22265625 12.07421875 C-9 14 -9 14 -12 15 C-11.75 13.1875 -11.75 13.1875 -11 11 C-9.67151309 9.99357052 -8.33849671 8.99307821 -7 8 C-7 7.01 -7 6.02 -7 5 C-5.35 5 -3.7 5 -2 5 C-1.855625 4.360625 -1.71125 3.72125 -1.5625 3.0625 C-1 1 -1 1 0 0 Z " fill="#CE60A2" transform="translate(376,205)"/>
<path d="M0 0 C0.49940808 6.11774896 -0.75099398 9.02495953 -4 14 C-4.33 13.34 -4.66 12.68 -5 12 C-5.66 12 -6.32 12 -7 12 C-7.32325181 7.87853942 -7.39022067 5.6324266 -5.1875 2.0625 C-3 0 -3 0 0 0 Z " fill="#BD509B" transform="translate(335,160)"/>
<path d="M0 0 C2.15229884 3.22844826 2.60309873 5.18974777 3 9 C2.67 9.99 2.34 10.98 2 12 C2.33 12.66 2.66 13.32 3 14 C2.34 14 1.68 14 1 14 C-0.17469444 16.34938888 -0.20034889 17.95073205 -0.31640625 20.5703125 C-0.35830078 21.46621094 -0.40019531 22.36210937 -0.44335938 23.28515625 C-0.48267578 24.22230469 -0.52199219 25.15945312 -0.5625 26.125 C-0.60568359 27.06988281 -0.64886719 28.01476562 -0.69335938 28.98828125 C-0.79959072 31.32537092 -0.90163176 33.6625683 -1 36 C-1.33 36 -1.66 36 -2 36 C-2.21517374 23.81454544 -2.29658079 12.01603879 0 0 Z " fill="#A47EB4" transform="translate(163,177)"/>
<path d="M0 0 C0.99 0.33 1.98 0.66 3 1 C2.55269531 1.37511719 2.10539062 1.75023437 1.64453125 2.13671875 C-1.25358585 4.58992235 -4.03032929 7.03103462 -6.6875 9.75 C-9.70989333 12.69070703 -11.52086189 13.93276645 -15.75 14.125 C-16.4925 14.08375 -17.235 14.0425 -18 14 C-14.24408809 9.61810277 -10.3779969 7.53349567 -5.109375 5.2109375 C-2.67110823 4.12217302 -2.67110823 4.12217302 -2 1 C-1.34 0.67 -0.68 0.34 0 0 Z " fill="#B14095" transform="translate(312,133)"/>
<path d="M0 0 C0.66 0.99 1.32 1.98 2 3 C1.34 3.66 0.68 4.32 0 5 C1.39195915 7.7839183 3.15575779 7.97898997 6 9 C6 9.66 6 10.32 6 11 C6.99 11.33 7.98 11.66 9 12 C8.34 12.66 7.68 13.32 7 14 C6.33613281 13.54367188 5.67226563 13.08734375 4.98828125 12.6171875 C4.10527344 12.04226562 3.22226562 11.46734375 2.3125 10.875 C1.44238281 10.29492188 0.57226562 9.71484375 -0.32421875 9.1171875 C-2.98927671 7.67621249 -2.98927671 7.67621249 -5.83203125 8.8203125 C-6.54746094 9.20960937 -7.26289063 9.59890625 -8 10 C-8 8.68 -8 7.36 -8 6 C-7.34 6 -6.68 6 -6 6 C-5.67 5.34 -5.34 4.68 -5 4 C-3.35636866 3.27840576 -1.68949614 2.60648579 0 2 C0 1.34 0 0.68 0 0 Z " fill="#CD6DA4" transform="translate(361,83)"/>
<path d="M0 0 C0.99 0.33 1.98 0.66 3 1 C3 1.66 3 2.32 3 3 C3.33 3.66 3.66 4.32 4 5 C2.65925162 9.02224515 0.2724102 10.39542862 -3 13 C-3.66 13.66 -4.32 14.32 -5 15 C-7.32275177 15.40047444 -9.65739357 15.7397104 -12 16 C-8.29939798 12.07511907 -4.5093075 8.97784457 0 6 C0.66 6 1.32 6 2 6 C2 5.34 2 4.68 2 4 C0.68 3.67 -0.64 3.34 -2 3 C-2 2.34 -2 1.68 -2 1 C-1.34 0.67 -0.68 0.34 0 0 Z " fill="#9E69A6" transform="translate(250,299)"/>
<path d="M0 0 C3.65316671 1.24976756 4.78065836 1.67098753 7 5 C7.66 5.33 8.32 5.66 9 6 C11 7 11 7 13 10 C12.8125 12.125 12.8125 12.125 12 14 C11.01 14.33 10.02 14.66 9 15 C7.68647829 12.87562549 6.37414287 10.75053408 5.0625 8.625 C4.68931641 8.02171875 4.31613281 7.4184375 3.93164062 6.796875 C1.11328125 2.2265625 1.11328125 2.2265625 0 0 Z " fill="#D45397" transform="translate(379,139)"/>
<path d="M0 0 C0.66 0.33 1.32 0.66 2 1 C2 1.99 2 2.98 2 4 C1.360625 4.268125 0.72125 4.53625 0.0625 4.8125 C-2.33131686 5.88667752 -2.33131686 5.88667752 -3 9 C-4.31337396 10.0260734 -5.64664105 11.02727325 -7 12 C-7.33 12.66 -7.66 13.32 -8 14 C-10.9375 15.6875 -10.9375 15.6875 -14 17 C-14.66 16.67 -15.32 16.34 -16 16 C-14.38113585 14.32737283 -12.7547271 12.66204463 -11.125 11 C-9.76761719 9.6078125 -9.76761719 9.6078125 -8.3828125 8.1875 C-6 6 -6 6 -4 6 C-3.67 5.01 -3.34 4.02 -3 3 C-1.4375 1.3125 -1.4375 1.3125 0 0 Z " fill="#B2649E" transform="translate(317,124)"/>
<path d="M0 0 C-1.76429199 4.97209562 -4.3939166 9.43438061 -7 14 C-7.33 12.68 -7.66 11.36 -8 10 C-9.32 9.67 -10.64 9.34 -12 9 C-10.625 7.5 -10.625 7.5 -9 6 C-8.34 6 -7.68 6 -7 6 C-6.67 5.01 -6.34 4.02 -6 3 C-5.34 3 -4.68 3 -4 3 C-4 2.34 -4 1.68 -4 1 C-2 0 -2 0 0 0 Z " fill="#CF70A6" transform="translate(407,42)"/>
<path d="M0 0 C3.3 0 6.6 0 10 0 C10 0.66 10 1.32 10 2 C10.66 2 11.32 2 12 2 C12 2.66 12 3.32 12 4 C12.99 4.33 13.98 4.66 15 5 C6.09 4.34 -2.82 3.68 -12 3 C-12 2.67 -12 2.34 -12 2 C-8.04 2 -4.08 2 0 2 C0 1.34 0 0.68 0 0 Z " fill="#C970AC" transform="translate(298,92)"/>
<path d="M0 0 C0.375 2.25 0.375 2.25 0 5 C-3 7.3125 -3 7.3125 -6 9 C-8.14553974 6.85446026 -8.72963853 5.97397616 -9 3 C-6.75886401 -0.69128281 -4.00118708 -0.26674581 0 0 Z " fill="#AE4C9A" transform="translate(331,241)"/>
<path d="M0 0 C2.475 0.495 2.475 0.495 5 1 C5.33 1.99 5.66 2.98 6 4 C8.07014307 4.91289284 8.07014307 4.91289284 10.5 5.5 C12.96875 6.15625 12.96875 6.15625 15 7 C15.33 7.99 15.66 8.98 16 10 C15.34 10 14.68 10 14 10 C13.67 10.66 13.34 11.32 13 12 C12.67 11.34 12.34 10.68 12 10 C10.11736119 9.09656316 10.11736119 9.09656316 7.9375 8.375 C7.20402344 8.11460938 6.47054688 7.85421875 5.71484375 7.5859375 C4.86599609 7.29589844 4.86599609 7.29589844 4 7 C4 6.01 4 5.02 4 4 C2.68 3.34 1.36 2.68 0 2 C0 1.34 0 0.68 0 0 Z " fill="#D54493" transform="translate(333,78)"/>
<path d="M0 0 C1 3 1 3 0.0625 5.1875 C-0.4634375 6.0846875 -0.4634375 6.0846875 -1 7 C0.65 7.33 2.3 7.66 4 8 C4 8.99 4 9.98 4 11 C3.01 11 2.02 11 1 11 C0.67 11.99 0.34 12.98 0 14 C-0.99 14.33 -1.98 14.66 -3 15 C-2.67 13.35 -2.34 11.7 -2 10 C-3.32 9.34 -4.64 8.68 -6 8 C-4.02 5.36 -2.04 2.72 0 0 Z " fill="#82569F" transform="translate(194,337)"/>
<path d="M0 0 C2.97 0.495 2.97 0.495 6 1 C6.33 2.32 6.66 3.64 7 5 C6.319375 5.061875 5.63875 5.12375 4.9375 5.1875 C0.96821063 6.28538855 -1.78639555 8.49023975 -5 11 C-5 10.01 -5 9.02 -5 8 C-4.34 8 -3.68 8 -3 8 C-3.33 6.68 -3.66 5.36 -4 4 C-2.68 3.34 -1.36 2.68 0 2 C0 1.34 0 0.68 0 0 Z " fill="#8A61A3" transform="translate(229,316)"/>
<path d="M0 0 C-3.9700218 4.21814817 -8.30840284 7.61227103 -13 11 C-13 10.01 -13 9.02 -13 8 C-13.31088368 6.32900023 -13.64080332 4.66128463 -14 3 C-13.01 2.67 -12.02 2.34 -11 2 C-11 2.99 -11 3.98 -11 5 C-10.113125 4.175 -9.22625 3.35 -8.3125 2.5 C-5.49455481 0.12382294 -3.76196377 -0.55322997 0 0 Z " fill="#A866A1" transform="translate(231,114)"/>
<path d="M0 0 C-1.32 1.65 -2.64 3.3 -4 5 C-4 4.34 -4 3.68 -4 3 C-4.7425 3.33 -5.485 3.66 -6.25 4 C-11.5121552 5.40324139 -16.5857837 5.15769562 -22 5 C-18.6338436 3.10705142 -15.31729781 2.23447973 -11.5625 1.375 C-10.45003906 1.11460938 -9.33757812 0.85421875 -8.19140625 0.5859375 C-5.3616884 0.06640546 -2.86450045 -0.11779254 0 0 Z M-11 5 C-10.34 5.66 -9.68 6.32 -9 7 C-9.66 7 -10.32 7 -11 7 C-11 6.34 -11 5.68 -11 5 Z " fill="#B4609F" transform="translate(276,72)"/>
<path d="M0 0 C11.03034265 -0.18115526 21.99051677 0.385313 33 1 C33 1.33 33 1.66 33 2 C31.83428467 2.03758423 31.83428467 2.03758423 30.64501953 2.07592773 C27.13816931 2.19166796 23.63160255 2.31449352 20.125 2.4375 C18.90167969 2.47681641 17.67835938 2.51613281 16.41796875 2.55664062 C14.66806641 2.61948242 14.66806641 2.61948242 12.8828125 2.68359375 C11.80402832 2.72025146 10.72524414 2.75690918 9.61376953 2.79467773 C7.01930464 2.83376643 7.01930464 2.83376643 5 4 C5 3.34 5 2.68 5 2 C3.35 1.67 1.7 1.34 0 1 C0 0.67 0 0.34 0 0 Z " fill="#C36FA5" transform="translate(347,194)"/>
<path d="M0 0 C0 1.32 0 2.64 0 4 C-1.32 3.67 -2.64 3.34 -4 3 C-4 3.66 -4 4.32 -4 5 C-7.67062491 6.57312496 -9.44302674 7.14440048 -13.375 6.125 C-14.24125 5.75375 -15.1075 5.3825 -16 5 C-16 4.67 -16 4.34 -16 4 C-13.89748139 3.32815382 -11.79292237 2.66269032 -9.6875 2 C-8.51574219 1.62875 -7.34398437 1.2575 -6.13671875 0.875 C-3 0 -3 0 0 0 Z " fill="#BA63A0" transform="translate(334,302)"/>
<path d="M0 0 C0.66 0 1.32 0 2 0 C2.268125 1.0725 2.53625 2.145 2.8125 3.25 C3.86227827 6.56508928 4.74612328 8.43877646 7 11 C6.34 12.32 5.68 13.64 5 15 C3.82508418 13.23462904 2.66031316 11.46250287 1.5 9.6875 C0.8503125 8.70136719 0.200625 7.71523438 -0.46875 6.69921875 C-2 4 -2 4 -2 1 C-1.34 1.33 -0.68 1.66 0 2 C0 1.34 0 0.68 0 0 Z " fill="#8F63A8" transform="translate(180,264)"/>
<path d="M0 0 C0.33 0 0.66 0 1 0 C1.45636453 8.4342927 0.17423358 15.85956596 -2 24 C-4.18372313 20.72441531 -4.22327862 20.47202453 -3.57421875 16.875 C-3.43693359 16.08609375 -3.29964844 15.2971875 -3.15820312 14.484375 C-3.00287109 13.66453125 -2.84753906 12.8446875 -2.6875 12 C-2.54376953 11.18015625 -2.40003906 10.3603125 -2.25195312 9.515625 C-1.66549648 6.23789471 -1.05505427 3.1651628 0 0 Z " fill="#CC689D" transform="translate(421,216)"/>
<path d="M0 0 C0.33 0.66 0.66 1.32 1 2 C0.67 2.99 0.34 3.98 0 5 C-1.2065625 5.4640625 -1.2065625 5.4640625 -2.4375 5.9375 C-5.12205735 6.7509349 -5.12205735 6.7509349 -6.1875 9 C-6.455625 9.66 -6.72375 10.32 -7 11 C-7.66 11.66 -8.32 12.32 -9 13 C-11.125 12.625 -11.125 12.625 -13 12 C-11.58653438 10.55935235 -10.16908789 9.12260985 -8.75 7.6875 C-7.96109375 6.88699219 -7.1721875 6.08648437 -6.359375 5.26171875 C-4.32605933 3.31256349 -2.29398922 1.62578594 0 0 Z " fill="#A872AE" transform="translate(248,190)"/>
<path d="M0 0 C0.33 0.99 0.66 1.98 1 3 C0.01 4.485 0.01 4.485 -1 6 C-0.34 6 0.32 6 1 6 C1.33 5.34 1.66 4.68 2 4 C2.66 4 3.32 4 4 4 C4.33 5.65 4.66 7.3 5 9 C3.3125 10.125 3.3125 10.125 1 11 C-1.75 10.125 -1.75 10.125 -4 9 C-3.34 6.69 -2.68 4.38 -2 2 C-1.34 2 -0.68 2 0 2 C0 1.34 0 0.68 0 0 Z " fill="#704095" transform="translate(197,335)"/>
<path d="M0 0 C0 0.33 0 0.66 0 1 C4.29 1.33 8.58 1.66 13 2 C13 2.33 13 2.66 13 3 C-4.85649203 3.18451025 -4.85649203 3.18451025 -13 2 C-13 1.34 -13 0.68 -13 0 C-8.37078475 -1.0161692 -4.65537393 -0.83796731 0 0 Z " fill="#BD89BE" transform="translate(288,331)"/>
<path d="M0 0 C0.5625 1.9375 0.5625 1.9375 1 4 C0.67 4.33 0.34 4.66 0 5 C0.66 5.33 1.32 5.66 2 6 C1.67 6.66 1.34 7.32 1 8 C-0.98 8 -2.96 8 -5 8 C-4.67 7.01 -4.34 6.02 -4 5 C-4.99 4.34 -5.98 3.68 -7 3 C-4.49955934 -0.00052879 -4.2621484 0 0 0 Z " fill="#6D3A90" transform="translate(220,310)"/>
<path d="M0 0 C0 0.66 0 1.32 0 2 C-0.66 2 -1.32 2 -2 2 C-1.67 2.99 -1.34 3.98 -1 5 C-1.99 6.485 -1.99 6.485 -3 8 C-3 7.34 -3 6.68 -3 6 C-5.49064888 5.31292445 -7.37886292 5 -10 5 C-10.66 5 -11.32 5 -12 5 C-12 4.34 -12 3.68 -12 3 C-11.01 3 -10.02 3 -9 3 C-9 2.34 -9 1.68 -9 1 C-5.8035914 -0.06546953 -3.34252724 -0.07427838 0 0 Z " fill="#884096" transform="translate(258,296)"/>
<path d="M0 0 C1.32 0.66 2.64 1.32 4 2 C0.25 5 0.25 5 -2 5 C-2 5.66 -2 6.32 -2 7 C-3.96875 8.5078125 -3.96875 8.5078125 -6.5 10.125 C-7.3353125 10.66382813 -8.170625 11.20265625 -9.03125 11.7578125 C-9.6809375 12.16773438 -10.330625 12.57765625 -11 13 C-11 12.01 -11 11.02 -11 10 C-10.34 10 -9.68 10 -9 10 C-8.67 9.01 -8.34 8.02 -8 7 C-5.66796984 4.35703248 -4.38326722 3.12775574 -1 2 C-0.67 1.34 -0.34 0.68 0 0 Z " fill="#AF69A3" transform="translate(313,255)"/>
<path d="M0 0 C3.16115776 1.36983503 3.9927092 1.9890638 6 5 C6 5.99 6 6.98 6 8 C4.02 8 2.04 8 0 8 C-1.125 6.25 -1.125 6.25 -2 4 C-1.125 1.75 -1.125 1.75 0 0 Z " fill="#7E3991" transform="translate(233,285)"/>
<path d="M0 0 C2.14762184 3.22143276 2.561068 4.2595467 2 8 C0.1875 9.8125 0.1875 9.8125 -2 11 C-2.99 11 -3.98 11 -5 11 C-5 10.34 -5 9.68 -5 9 C-4.34 9 -3.68 9 -3 9 C-3.83333333 6.83333333 -3.83333333 6.83333333 -6 6 C-4.02 4.02 -2.04 2.04 0 0 Z " fill="#B05AA3" transform="translate(292,148)"/>
<path d="M0 0 C0.33 0 0.66 0 1 0 C1 5.28 1 10.56 1 16 C1.66 16.33 2.32 16.66 3 17 C3.66666667 18.33333333 4.33333333 19.66666667 5 21 C4.34 21 3.68 21 3 21 C2.67 23.31 2.34 25.62 2 28 C1.67 28 1.34 28 1 28 C-0.05838127 21.99139451 -0.11662571 16.15372439 -0.0625 10.0625 C-0.05798828 9.09248047 -0.05347656 8.12246094 -0.04882812 7.12304688 C-0.0371315 4.7486324 -0.02074086 2.37434979 0 0 Z " fill="#6B3684" transform="translate(162,192)"/>
<path d="M0 0 C0.66 0 1.32 0 2 0 C2 0.99 2 1.98 2 3 C2.66 3 3.32 3 4 3 C4.66 4.65 5.32 6.3 6 8 C5.34 8 4.68 8 4 8 C3.67 8.99 3.34 9.98 3 11 C2.34 11 1.68 11 1 11 C1 9.35 1 7.7 1 6 C0.01 6 -0.98 6 -2 6 C-1.49396008 3.83125748 -1.00016187 2.00032373 0 0 Z " fill="#7C3A96" transform="translate(194,253)"/>
<path d="M0 0 C0.66 0 1.32 0 2 0 C2 0.66 2 1.32 2 2 C3.32 2.33 4.64 2.66 6 3 C4.35 6.3 2.7 9.6 1 13 C0.67 13 0.34 13 0 13 C-0.33 10.69 -0.66 8.38 -1 6 C-0.34 6 0.32 6 1 6 C0.67 4.02 0.34 2.04 0 0 Z " fill="#B8589E" transform="translate(321,176)"/>
<path d="M0 0 C0.33 0.66 0.66 1.32 1 2 C-0.97367827 6.05700533 -3.58476625 9.07265679 -7 12 C-9.8125 12.8125 -9.8125 12.8125 -12 13 C-12 12.34 -12 11.68 -12 11 C-10.390625 9.4140625 -10.390625 9.4140625 -8.25 7.625 C-5.3756268 5.18382134 -2.61456008 2.72350008 0 0 Z " fill="#A2629C" transform="translate(271,168)"/>
<path d="M0 0 C0.33 0.66 0.66 1.32 1 2 C2.65 2 4.3 2 6 2 C1.375 6.875 1.375 6.875 -2 8 C-2.33 8.66 -2.66 9.32 -3 10 C-3.99 10 -4.98 10 -6 10 C-4.34832443 6.4213696 -2.21713508 3.25179812 0 0 Z " fill="#8B6AA0" transform="translate(184,351)"/>
<path d="M0 0 C3.3 0.66 6.6 1.32 10 2 C10 2.33 10 2.66 10 3 C2.94546999 4.20443195 -3.83437211 5.28100502 -11 5 C-11 4.67 -11 4.34 -11 4 C-9.35 3.67 -7.7 3.34 -6 3 C-6 2.67 -6 2.34 -6 2 C-4.02 2 -2.04 2 0 2 C0 1.34 0 0.68 0 0 Z " fill="#B167A8" transform="translate(312,328)"/>
<path d="M0 0 C0.33 0.66 0.66 1.32 1 2 C-0.67069309 6.66035441 -2.50646455 10.40059984 -6 14 C-8.25 14.8125 -8.25 14.8125 -10 15 C-8.37815499 11.41486894 -6.20743761 8.41007677 -3.875 5.25 C-3.15054688 4.26515625 -2.42609375 3.2803125 -1.6796875 2.265625 C-1.12539062 1.51796875 -0.57109375 0.7703125 0 0 Z " fill="#9561A2" transform="translate(242,271)"/>
<path d="M0 0 C0.66 0.66 1.32 1.32 2 2 C4.10820797 1.6814823 4.10820797 1.6814823 6 1 C5 3 5 3 1.9375 4.125 C0.4834375 4.558125 0.4834375 4.558125 -1 5 C-0.67 5.99 -0.34 6.98 0 8 C-0.99 9.485 -0.99 9.485 -2 11 C-3.32 11 -4.64 11 -6 11 C-4.54955729 6.89041233 -2.48889248 3.56741255 0 0 Z " fill="#9B64A6" transform="translate(184,127)"/>
<path d="M0 0 C0.66 1.32 1.32 2.64 2 4 C1.34 4 0.68 4 0 4 C-0.33 6.31 -0.66 8.62 -1 11 C-1.33 10.34 -1.66 9.68 -2 9 C-2.66 9 -3.32 9 -4 9 C-4 9.66 -4 10.32 -4 11 C-5.32 11.33 -6.64 11.66 -8 12 C-6.85573734 10.186508 -5.70954608 8.37423275 -4.5625 6.5625 C-3.60537109 5.04849609 -3.60537109 5.04849609 -2.62890625 3.50390625 C-1 1 -1 1 0 0 Z " fill="#CA6CA2" transform="translate(384,258)"/>
<path d="M0 0 C0.99 0.66 1.98 1.32 3 2 C2.67 2.66 2.34 3.32 2 4 C1.34 4 0.68 4 0 4 C-0.33 5.32 -0.66 6.64 -1 8 C-2.98 8 -4.96 8 -7 8 C-6.34 6.68 -5.68 5.36 -5 4 C-4.34 4 -3.68 4 -3 4 C-2.67 3.01 -2.34 2.02 -2 1 C-1.34 0.67 -0.68 0.34 0 0 Z " fill="#C562A2" transform="translate(334,109)"/>
<path d="M0 0 C0 0.33 0 0.66 0 1 C-1.57587891 1.18175781 -1.57587891 1.18175781 -3.18359375 1.3671875 C-10.56126606 2.24021206 -17.7800756 3.1950189 -25 5 C-24.67 4.34 -24.34 3.68 -24 3 C-21.67843403 2.59270772 -19.3431213 2.25561323 -17 2 C-17 1.34 -17 0.68 -17 0 C-11.23073111 -1.40333568 -5.81856895 -0.67296616 0 0 Z " fill="#D094C1" transform="translate(286,95)"/>
<path d="M0 0 C4.97093824 0.41153737 9.44508386 0.79600832 14 3 C13.360625 3.12375 12.72125 3.2475 12.0625 3.375 C11.381875 3.58125 10.70125 3.7875 10 4 C9.67 4.66 9.34 5.32 9 6 C9 5.34 9 4.68 9 4 C8.443125 4.268125 7.88625 4.53625 7.3125 4.8125 C6.549375 4.874375 5.78625 4.93625 5 5 C2.25 2.5625 2.25 2.5625 0 0 Z " fill="#CF6AA4" transform="translate(319,74)"/>
<path d="M0 0 C9.05293337 -0.13534286 17.97859571 0.24258075 27 1 C27 1.33 27 1.66 27 2 C25.35 2 23.7 2 22 2 C21.67 2.66 21.34 3.32 21 4 C20.40574219 3.86722656 19.81148438 3.73445313 19.19921875 3.59765625 C12.81489175 2.23738751 6.50786446 1.4701499 0 1 C0 0.67 0 0.34 0 0 Z " fill="#BC6B9C" transform="translate(286,71)"/>
<path d="M0 0 C3 3.75 3 3.75 3 6 C4.32 6.33 5.64 6.66 7 7 C7 8.65 7 10.3 7 12 C5.68 11.67 4.36 11.34 3 11 C2.896875 10.401875 2.79375 9.80375 2.6875 9.1875 C2.17030653 6.90759282 2.17030653 6.90759282 0.375 5.5 C-0.07875 5.005 -0.5325 4.51 -1 4 C-0.6875 1.8125 -0.6875 1.8125 0 0 Z " fill="#783894" transform="translate(198,286)"/>
<path d="M0 0 C-3.75 3.875 -3.75 3.875 -6 5 C-6.66 4.67 -7.32 4.34 -8 4 C-8 4.66 -8 5.32 -8 6 C-9.65 6.33 -11.3 6.66 -13 7 C-12.07038578 5.84775972 -11.1309875 4.70340824 -10.1875 3.5625 C-9.66542969 2.92441406 -9.14335937 2.28632812 -8.60546875 1.62890625 C-5.7732813 -1.244627 -3.61732414 -1.12261784 0 0 Z " fill="#B75595" transform="translate(332,117)"/>
<path d="M0 0 C0.33 0 0.66 0 1 0 C1 3.96 1 7.92 1 12 C0.01 12.33 -0.98 12.66 -2 13 C-3.34939759 5.76232202 -3.34939759 5.76232202 -1.625 2 C-1.08875 1.34 -0.5525 0.68 0 0 Z " fill="#763991" transform="translate(167,170)"/>
<path d="M0 0 C3.22265625 5.17578125 3.22265625 5.17578125 4 7 C3.67 7.99 3.34 8.98 3 10 C1.99403703 9.0479279 0.99538437 8.08812654 0 7.125 C-0.556875 6.59132812 -1.11375 6.05765625 -1.6875 5.5078125 C-3 4 -3 4 -3 2 C-3.66 1.67 -4.32 1.34 -5 1 C-3 0 -3 0 0 0 Z " fill="#CC66A1" transform="translate(371,123)"/>
<path d="M0 0 C0.66 0.33 1.32 0.66 2 1 C0.64905419 5.05283743 -1.37995418 5.87056128 -5 8 C-7.25 8.8125 -7.25 8.8125 -9 9 C-9.66 8.67 -10.32 8.34 -11 8 C-7.25 5 -7.25 5 -5 5 C-5 4.34 -5 3.68 -5 3 C-2.625 1.3125 -2.625 1.3125 0 0 Z " fill="#AF75AA" transform="translate(223,90)"/>
<path d="M0 0 C3.51463012 1.89980007 5.89550678 3.56635317 8 7 C8 7.66 8 8.32 8 9 C8.66 9 9.32 9 10 9 C9.67 9.66 9.34 10.32 9 11 C8.34 11 7.68 11 7 11 C7 10.01 7 9.02 7 8 C5.35 7.67 3.7 7.34 2 7 C1.34 4.69 0.68 2.38 0 0 Z " fill="#8F5E9F" transform="translate(202,263)"/>
<path d="M0 0 C2.475 0.99 2.475 0.99 5 2 C2.19195732 4.96404505 -0.18315774 7.44499019 -4 9 C-3.25 4.25 -3.25 4.25 -1 2 C-0.67 1.34 -0.34 0.68 0 0 Z " fill="#A165A3" transform="translate(287,273)"/>
<path d="M0 0 C0.66 0.33 1.32 0.66 2 1 C2 2.32 2 3.64 2 5 C1.34 5 0.68 5 0 5 C0 5.66 0 6.32 0 7 C-0.99 7.33 -1.98 7.66 -3 8 C-3.66 6.68 -4.32 5.36 -5 4 C-4.34 4 -3.68 4 -3 4 C-3 3.01 -3 2.02 -3 1 C-2.01 0.67 -1.02 0.34 0 0 Z " fill="#BE4E94" transform="translate(362,216)"/>
<path d="M0 0 C1.5625 1.0625 1.5625 1.0625 3 3 C2.6875 6.6875 2.6875 6.6875 2 10 C1.34 10 0.68 10 0 10 C-0.33 10.66 -0.66 11.32 -1 12 C-2.20272819 9.59454362 -2.10071472 8.05003047 -2.0625 5.375 C-2.05347656 4.55773437 -2.04445313 3.74046875 -2.03515625 2.8984375 C-2.02355469 2.27195313 -2.01195312 1.64546875 -2 1 C-1.34 0.67 -0.68 0.34 0 0 Z " fill="#D95EA3" transform="translate(402,197)"/>
<path d="M0 0 C0.66 0.33 1.32 0.66 2 1 C2.33 1.99 2.66 2.98 3 4 C0.36 5.98 -2.28 7.96 -5 10 C-4.67 8.35 -4.34 6.7 -4 5 C-3.34 5 -2.68 5 -2 5 C-1.7834375 4.0409375 -1.7834375 4.0409375 -1.5625 3.0625 C-1 1 -1 1 0 0 Z " fill="#BA5C9B" transform="translate(349,226)"/>
<path d="M0 0 C0.33 0.66 0.66 1.32 1 2 C0.52433594 2.90492187 0.52433594 2.90492187 0.0390625 3.828125 C-1.22139717 6.46277002 -1.04552714 7.89041545 -0.625 10.75 C-0.51414062 11.54921875 -0.40328125 12.3484375 -0.2890625 13.171875 C-0.19367188 13.77515625 -0.09828125 14.3784375 0 15 C-4.66743383 12.60644419 -4.66743383 12.60644419 -6.0625 10.0625 C-6 8 -6 8 -4.1875 6 C-3.465625 5.34 -2.74375 4.68 -2 4 C-0.76487921 1.86690808 -0.76487921 1.86690808 0 0 Z " fill="#DB89BA" transform="translate(366,109)"/>
<path d="M0 0 C1.32 0 2.64 0 4 0 C3.67 0.99 3.34 1.98 3 3 C0.4375 4.1875 0.4375 4.1875 -2 5 C-2 5.66 -2 6.32 -2 7 C-3.65 7 -5.3 7 -7 7 C-4.66666667 4.66666667 -2.33333333 2.33333333 0 0 Z " fill="#A366A2" transform="translate(209,100)"/>
<path d="M0 0 C0.99 0.33 1.98 0.66 3 1 C3 1.99 3 2.98 3 4 C4.43750191 5.68798827 4.43750191 5.68798827 6 7 C5.01 7.495 5.01 7.495 4 8 C1.64018187 7.06421005 -0.69631264 6.06652192 -3 5 C-3 3 -3 3 -1.5 1.375 C-1.005 0.92125 -0.51 0.4675 0 0 Z " fill="#D164A3" transform="translate(330,96)"/>
<path d="M0 0 C0.66 0.33 1.32 0.66 2 1 C1.67 1.66 1.34 2.32 1 3 C1.7425 2.690625 2.485 2.38125 3.25 2.0625 C5.50692176 1.1905075 7.6450153 0.52332993 10 0 C9.67 1.32 9.34 2.64 9 4 C8.236875 4.12375 7.47375 4.2475 6.6875 4.375 C3.79732864 4.88102792 3.79732864 4.88102792 1 7 C-0.0625 4.625 -0.0625 4.625 -1 2 C-0.67 1.34 -0.34 0.68 0 0 Z " fill="#6C378E" transform="translate(200,330)"/>
<path d="M0 0 C0.99 0 1.98 0 3 0 C5 2.25 5 2.25 7 5 C7.86625 6.0828125 7.86625 6.0828125 8.75 7.1875 C10 9 10 9 10 11 C8 11 8 11 6.30859375 9.35546875 C5.38240234 8.28232422 5.38240234 8.28232422 4.4375 7.1875 C3.81746094 6.47980469 3.19742188 5.77210938 2.55859375 5.04296875 C1 3 1 3 0 0 Z " fill="#946AA8" transform="translate(191,285)"/>
<path d="M0 0 C0.66 0.33 1.32 0.66 2 1 C0.7874262 4.72433382 -0.50859979 8.37802806 -2 12 C-2.33 12 -2.66 12 -3 12 C-3.08131463 10.56344146 -3.13933559 9.1255517 -3.1875 7.6875 C-3.22230469 6.88699219 -3.25710938 6.08648437 -3.29296875 5.26171875 C-2.93801608 2.52148416 -2.10633718 1.70828921 0 0 Z " fill="#CE609E" transform="translate(411,253)"/>
<path d="M0 0 C3.72357462 3.19163538 6.71201844 7.22140176 8 12 C7.1015625 14.25 7.1015625 14.25 6 16 C5.49384702 14.73160474 4.99530901 13.46016898 4.5 12.1875 C4.2215625 11.47980469 3.943125 10.77210938 3.65625 10.04296875 C3 8 3 8 3 5 C2.01 5 1.02 5 0 5 C0 3.35 0 1.7 0 0 Z " fill="#D479AB" transform="translate(403,132)"/>
<path d="M0 0 C1.65 0.99 3.3 1.98 5 3 C2.73038808 5.26961192 1.06630664 6.1025444 -2 7 C-2.99 6.34 -3.98 5.68 -5 5 C-3.625 3.5 -3.625 3.5 -2 2 C-1.34 2 -0.68 2 0 2 C0 1.34 0 0.68 0 0 Z " fill="#8A3C94" transform="translate(253,305)"/>
<path d="M0 0 C1.890625 0.18359375 1.890625 0.18359375 4 1 C5.046875 3.28515625 5.046875 3.28515625 5.75 6.0625 C5.99234375 6.98160156 6.2346875 7.90070313 6.484375 8.84765625 C6.65453125 9.55792969 6.8246875 10.26820313 7 11 C6.01 11.33 5.02 11.66 4 12 C3.3291288 10.3767313 2.66342971 8.75132422 2 7.125 C1.62875 6.22007812 1.2575 5.31515625 0.875 4.3828125 C0 2 0 2 0 0 Z " fill="#9775AC" transform="translate(167,242)"/>
<path d="M0 0 C0.33 0.66 0.66 1.32 1 2 C0.0390625 3.83984375 0.0390625 3.83984375 -1.375 5.9375 C-3.00525471 8.3737745 -4.06296245 10.18888736 -5 13 C-7.0625 13.6875 -7.0625 13.6875 -9 14 C-8.625 12.0625 -8.625 12.0625 -8 10 C-7.34 9.67 -6.68 9.34 -6 9 C-5.67 8.01 -5.34 7.02 -5 6 C-4.34 6 -3.68 6 -3 6 C-2.690625 5.195625 -2.38125 4.39125 -2.0625 3.5625 C-1 1 -1 1 0 0 Z " fill="#A976AC" transform="translate(271,231)"/>
<path d="M0 0 C0.33 0.66 0.66 1.32 1 2 C0.00390625 4.3828125 0.00390625 4.3828125 -1.4375 7.125 C-1.91058594 8.03507813 -2.38367188 8.94515625 -2.87109375 9.8828125 C-3.24363281 10.58148438 -3.61617187 11.28015625 -4 12 C-4.33 12 -4.66 12 -5 12 C-5 9.36 -5 6.72 -5 4 C-4.01 3.67 -3.02 3.34 -2 3 C-2 2.34 -2 1.68 -2 1 C-1.34 0.67 -0.68 0.34 0 0 Z " fill="#9D68A4" transform="translate(197,151)"/>
<path d="M0 0 C0.66 0.33 1.32 0.66 2 1 C2 4.10551666 1.4606285 5.35261084 0 8 C-1.32 8 -2.64 8 -4 8 C-3.40138258 5.64828869 -2.73075648 3.3140622 -2 1 C-1.34 0.67 -0.68 0.34 0 0 Z " fill="#7C378E" transform="translate(174,151)"/>
<path d="M0 0 C1.65 0 3.3 0 5 0 C4.67 2.31 4.34 4.62 4 7 C3.34 6.34 2.68 5.68 2 5 C1.01 6.485 1.01 6.485 0 8 C-0.66 7.01 -1.32 6.02 -2 5 C-1.34 5 -0.68 5 0 5 C0 3.35 0 1.7 0 0 Z " fill="#D24293" transform="translate(390,57)"/>
<path d="M0 0 C-0.99766109 2.49415272 -1.68616685 3.78740335 -3.9375 5.3125 C-6 6 -6 6 -9 5 C-8.34 5 -7.68 5 -7 5 C-7.33 3.68 -7.66 2.36 -8 1 C-3.375 -1.125 -3.375 -1.125 0 0 Z " fill="#B45CA5" transform="translate(260,97)"/>
<path d="M0 0 C1.65 0.33 3.3 0.66 5 1 C5.33 2.65 5.66 4.3 6 6 C1.44615385 6.36923077 1.44615385 6.36923077 -0.8125 4.5 C-1.204375 4.005 -1.59625 3.51 -2 3 C-1.34 2.01 -0.68 1.02 0 0 Z " fill="#813B8C" transform="translate(250,321)"/>
<path d="M0 0 C0.99 0.66 1.98 1.32 3 2 C2.67 3.65 2.34 5.3 2 7 C0.35 6.67 -1.3 6.34 -3 6 C-3.33 5.01 -3.66 4.02 -4 3 C-3.34 3 -2.68 3 -2 3 C-2 2.34 -2 1.68 -2 1 C-1.34 0.67 -0.68 0.34 0 0 Z " fill="#823A92" transform="translate(245,317)"/>
<path d="M0 0 C-0.33 0.99 -0.66 1.98 -1 3 C-1.66 3 -2.32 3 -3 3 C-3 3.66 -3 4.32 -3 5 C-5 6.625 -5 6.625 -7 8 C-7 7.34 -7 6.68 -7 6 C-7.66 5.67 -8.32 5.34 -9 5 C-3.375 0 -3.375 0 0 0 Z " fill="#C66BA4" transform="translate(371,278)"/>
<path d="M0 0 C0.66 0.99 1.32 1.98 2 3 C1.34 3 0.68 3 0 3 C-0.185625 3.61875 -0.37125 4.2375 -0.5625 4.875 C-2.71437233 8.05602866 -5.37533763 8.19451947 -9 9 C-6 6 -3 3 0 0 Z " fill="#9D6BA7" transform="translate(234,203)"/>
<path d="M0 0 C3.63 0 7.26 0 11 0 C11 0.66 11 1.32 11 2 C7.62902617 3.49821059 5.79557881 4 2 4 C2 3.34 2 2.68 2 2 C1.34 1.34 0.68 0.68 0 0 Z " fill="#D64193" transform="translate(378,197)"/>
<path d="M0 0 C0.99 0.33 1.98 0.66 3 1 C1.89300099 4.21029714 0.98396175 5.00968977 -2 6.8125 C-2.99 7.204375 -3.98 7.59625 -5 8 C-5.66 7.67 -6.32 7.34 -7 7 C-4.69 4.69 -2.38 2.38 0 0 Z " fill="#A066A6" transform="translate(256,182)"/>
<path d="M0 0 C0.66 1.32 1.32 2.64 2 4 C1.01 4.99 0.02 5.98 -1 7 C-2.32 5.68 -3.64 4.36 -5 3 C-4.67 2.34 -4.34 1.68 -4 1 C-1.9375 0.375 -1.9375 0.375 0 0 Z " fill="#C8579F" transform="translate(349,136)"/>
<path d="M0 0 C1.31625194 2.63250388 0.74813658 3.80179056 0.0625 6.625 C-0.13214844 7.44226563 -0.32679688 8.25953125 -0.52734375 9.1015625 C-0.76130859 10.04128906 -0.76130859 10.04128906 -1 11 C-1.66 11 -2.32 11 -3 11 C-3 10.34 -3 9.68 -3 9 C-3.66 8.67 -4.32 8.34 -5 8 C-3.35 5.36 -1.7 2.72 0 0 Z " fill="#7C3B8C" transform="translate(245,269)"/>
<path d="M0 0 C1 2 1 2 0.3125 5 C-1 8 -1 8 -3.125 9.375 C-3.74375 9.58125 -4.3625 9.7875 -5 10 C-5 6.60406522 -4.47834052 5.93380119 -2.5 3.3125 C-2.0359375 2.68988281 -1.571875 2.06726563 -1.09375 1.42578125 C-0.7328125 0.95527344 -0.371875 0.48476563 0 0 Z " fill="#A46FAE" transform="translate(252,257)"/>
<path d="M0 0 C2 3 2 3 1.8125 5.0625 C1 7 1 7 -2 9 C-3.32 8.34 -4.64 7.68 -6 7 C-5.195625 6.21625 -4.39125 5.4325 -3.5625 4.625 C-1.01309583 2.28017144 -1.01309583 2.28017144 0 0 Z " fill="#8E3991" transform="translate(270,235)"/>
<path d="M0 0 C0.33 0.66 0.66 1.32 1 2 C0.0390625 3.9453125 0.0390625 3.9453125 -1.375 6.125 C-1.83648437 6.84945312 -2.29796875 7.57390625 -2.7734375 8.3203125 C-3.17820312 8.87460938 -3.58296875 9.42890625 -4 10 C-4.33 10 -4.66 10 -5 10 C-5 8.02 -5 6.04 -5 4 C-4.34 4 -3.68 4 -3 4 C-3 3.01 -3 2.02 -3 1 C-2.01 0.67 -1.02 0.34 0 0 Z " fill="#CA79AE" transform="translate(344,148)"/>
<path d="M0 0 C1.32 0.66 2.64 1.32 4 2 C1.69 4.31 -0.62 6.62 -3 9 C-3.66 8.67 -4.32 8.34 -5 8 C-5 7.34 -5 6.68 -5 6 C-4.360625 5.525625 -3.72125 5.05125 -3.0625 4.5625 C-0.71627037 3.0908635 -0.71627037 3.0908635 0 0 Z " fill="#A86CA8" transform="translate(214,124)"/>
<path d="M0 0 C2.5 1.3125 2.5 1.3125 5 3 C5 3.99 5 4.98 5 6 C3.35 5.67 1.7 5.34 0 5 C0 4.34 0 3.68 0 3 C-0.66 2.67 -1.32 2.34 -2 2 C-1.34 1.34 -0.68 0.68 0 0 Z " fill="#81458F" transform="translate(210,273)"/>
<path d="M0 0 C0.66 0 1.32 0 2 0 C2.33 0.99 2.66 1.98 3 3 C1.68 3.99 0.36 4.98 -1 6 C-2.32 5.34 -3.64 4.68 -5 4 C-4 2 -4 2 -2 1 C-1.34 1.33 -0.68 1.66 0 2 C0 1.34 0 0.68 0 0 Z " fill="#CF5A9E" transform="translate(389,197)"/>
<path d="M0 0 C4.75481646 0.57634139 7.97048212 2.55068521 12 5 C8.52128379 6.15957207 7.65780355 5.77456651 4.3125 4.5625 C3.50425781 4.27503906 2.69601562 3.98757812 1.86328125 3.69140625 C1.24839844 3.46324219 0.63351562 3.23507813 0 3 C0 2.01 0 1.02 0 0 Z " fill="#D074AD" transform="translate(337,104)"/>
<path d="M0 0 C0.66 0 1.32 0 2 0 C0.59257936 3.51855159 -0.66466523 4.38612834 -4 6 C-4.33 6.99 -4.66 7.98 -5 9 C-5.33 9 -5.66 9 -6 9 C-6 7.35 -6 5.7 -6 4 C-4.35 3.67 -2.7 3.34 -1 3 C-0.67 2.01 -0.34 1.02 0 0 Z " fill="#CF78AC" transform="translate(349,94)"/>
<path d="M0 0 C1.65 0 3.3 0 5 0 C4.67 1.65 4.34 3.3 4 5 C2.35 4.67 0.7 4.34 -1 4 C-0.67 2.68 -0.34 1.36 0 0 Z " fill="#C95594" transform="translate(394,52)"/>
<path d="M0 0 C0.33 0 0.66 0 1 0 C1.17942163 3.94727588 1.09350689 6.5980513 -1 10 C-1.66 10 -2.32 10 -3 10 C-3.75 8.375 -3.75 8.375 -4 6 C-2.125 2.75 -2.125 2.75 0 0 Z " fill="#835BA2" transform="translate(204,323)"/>
<path d="M0 0 C1.093125 0.185625 2.18625 0.37125 3.3125 0.5625 C6.93624133 1.2578068 6.93624133 1.2578068 10 0 C10.33 1.32 10.66 2.64 11 4 C8.69 4 6.38 4 4 4 C4 3.34 4 2.68 4 2 C2.68 2 1.36 2 0 2 C0 1.34 0 0.68 0 0 Z " fill="#AF3F93" transform="translate(318,307)"/>
<path d="M0 0 C0.99 0.33 1.98 0.66 3 1 C2.34 1 1.68 1 1 1 C1.66 2.98 2.32 4.96 3 7 C2.01 7 1.02 7 0 7 C-1.6875 4.5 -1.6875 4.5 -3 2 C-2.01 1.34 -1.02 0.68 0 0 Z " fill="#86569F" transform="translate(189,277)"/>
<path d="M0 0 C2.4375 0.75 2.4375 0.75 5 2 C5.8125 4.125 5.8125 4.125 6 6 C4.68 6.33 3.36 6.66 2 7 C2 6.01 2 5.02 2 4 C1.34 3.67 0.68 3.34 0 3 C0 2.01 0 1.02 0 0 Z " fill="#893F90" transform="translate(272,280)"/>
<path d="M0 0 C2.02558881 3.34939881 2.21738987 5.86962551 2.125 9.75 C2.10695312 10.73484375 2.08890625 11.7196875 2.0703125 12.734375 C2.04710937 13.48203125 2.02390625 14.2296875 2 15 C1.01 15 0.02 15 -1 15 C-0.9278125 14.41992188 -0.855625 13.83984375 -0.78125 13.2421875 C-0.2533613 8.79912426 0.11496626 4.48368422 0 0 Z " fill="#75378C" transform="translate(185,220)"/>
<path d="M0 0 C0.66 1.32 1.32 2.64 2 4 C2.66 3.67 3.32 3.34 4 3 C4 5.97 4 8.94 4 12 C3.34 12 2.68 12 2 12 C-0.60018816 8.09971775 -0.15085514 4.52565431 0 0 Z " fill="#83519B" transform="translate(162,213)"/>
<path d="M0 0 C2.83374881 3.20336822 3.5205537 5.78087253 4 10 C3.34 10 2.68 10 2 10 C2 8.35 2 6.7 2 5 C0.35 5 -1.3 5 -3 5 C-1.125 1.125 -1.125 1.125 0 0 Z " fill="#D673AB" transform="translate(413,151)"/>
<path d="M0 0 C0.33 0.66 0.66 1.32 1 2 C-2.32307692 7.78461538 -2.32307692 7.78461538 -5.75 8.875 C-6.4925 8.91625 -7.235 8.9575 -8 9 C-7.04270084 7.87411986 -6.08412105 6.7493285 -5.125 5.625 C-4.59132813 4.99851562 -4.05765625 4.37203125 -3.5078125 3.7265625 C-2.38567993 2.44163349 -1.20628025 1.20628025 0 0 Z " fill="#D67DAD" transform="translate(380,65)"/>
<path d="M0 0 C0.66 0 1.32 0 2 0 C0.49776416 4.20626034 -2.28550034 5.73900021 -6 8 C-5.67 6.35 -5.34 4.7 -5 3 C-3.68 3 -2.36 3 -1 3 C-0.67 2.01 -0.34 1.02 0 0 Z " fill="#C1639B" transform="translate(375,301)"/>
<path d="M0 0 C0.99 0.33 1.98 0.66 3 1 C4.1875 4.0625 4.1875 4.0625 5 7 C4.01 7.33 3.02 7.66 2 8 C-0.1519437 4.77208445 -0.20086443 3.71599191 0 0 Z " fill="#825699" transform="translate(174,256)"/>
<path d="M0 0 C0.33 0 0.66 0 1 0 C3.11161731 9.41002278 3.11161731 9.41002278 4 14 C3.34 14 2.68 14 2 14 C0.09391902 10.78817851 -0.22266247 8.46117397 -0.125 4.75 C-0.09792969 3.41195312 -0.09792969 3.41195312 -0.0703125 2.046875 C-0.04710937 1.37140625 -0.02390625 0.6959375 0 0 Z " fill="#8F649E" transform="translate(187,224)"/>
<path d="M0 0 C1.65 0 3.3 0 5 0 C5 1.65 5 3.3 5 5 C3.35 5 1.7 5 0 5 C0 3.33333333 0 1.66666667 0 0 Z " fill="#873C95" transform="translate(235,203)"/>
<path d="M0 0 C0.66 0 1.32 0 2 0 C2.66 1.98 3.32 3.96 4 6 C2.68 6.99 1.36 7.98 0 9 C0 8.01 0 7.02 0 6 C-0.185625 5.13375 -0.37125 4.2675 -0.5625 3.375 C-0.706875 2.59125 -0.85125 1.8075 -1 1 C-0.67 0.67 -0.34 0.34 0 0 Z " fill="#A25BA0" transform="translate(218,116)"/>
<path d="M0 0 C0.66 0.33 1.32 0.66 2 1 C2 1.99 2 2.98 2 4 C-0.5654594 6.5654594 -2.47686668 6.54046087 -6 7 C-5.67 6.34 -5.34 5.68 -5 5 C-4.34 5 -3.68 5 -3 5 C-3 4.34 -3 3.68 -3 3 C-1.5 1.375 -1.5 1.375 0 0 Z " fill="#D775AD" transform="translate(368,76)"/>
<path d="M0 0 C-1.07401108 2.91517292 -1.77810176 4.77810176 -4 7 C-4.99 6.67 -5.98 6.34 -7 6 C-6.67 5.01 -6.34 4.02 -6 3 C-5.34 3 -4.68 3 -4 3 C-4 2.34 -4 1.68 -4 1 C-2 0 -2 0 0 0 Z " fill="#CD95B1" transform="translate(407,42)"/>
<path d="M0 0 C0 2.66053211 -0.19335496 4.49940039 -1 7 C-1.66 7.66 -2.32 8.32 -3 9 C-3.99 8.67 -4.98 8.34 -6 8 C-5.67 7.34 -5.34 6.68 -5 6 C-4.34 6 -3.68 6 -3 6 C-2.87625 5.38125 -2.7525 4.7625 -2.625 4.125 C-2 2 -2 2 0 0 Z " fill="#9C7AB1" transform="translate(211,314)"/>
<path d="M0 0 C1.98 0 3.96 0 6 0 C5.01 0.495 5.01 0.495 4 1 C3.690625 1.66 3.38125 2.32 3.0625 3 C2 5 2 5 -1 6 C-0.67 4.02 -0.34 2.04 0 0 Z " fill="#863B90" transform="translate(258,250)"/>
<path d="M0 0 C0.33 0.66 0.66 1.32 1 2 C0 5 0 5 -3.0625 6.6875 C-4.031875 7.120625 -5.00125 7.55375 -6 8 C-5.65120368 4.74456771 -4.97866739 3.98126893 -2.4375 1.75 C-1.633125 1.1725 -0.82875 0.595 0 0 Z " fill="#9D6BA2" transform="translate(248,190)"/>
<path d="M0 0 C5 2 5 2 6.14453125 3.7265625 C7.07226562 6.36328125 7.07226562 6.36328125 8 9 C7.01 9.495 7.01 9.495 6 10 C4.02 6.7 2.04 3.4 0 0 Z " fill="#CF74A8" transform="translate(379,139)"/>
<path d="M0 0 C0.99 1.32 1.98 2.64 3 4 C1.35 5.32 -0.3 6.64 -2 8 C-2.66 7.67 -3.32 7.34 -4 7 C-3.34 5.35 -2.68 3.7 -2 2 C-1.34 2 -0.68 2 0 2 C0 1.34 0 0.68 0 0 Z " fill="#DC7CB5" transform="translate(374,97)"/>
<path d="M0 0 C0.33 0.66 0.66 1.32 1 2 C-2.47325181 3.1577506 -5.36067448 3.06866652 -9 3 C-6.38997624 -0.48003168 -4.1689578 -0.27793052 0 0 Z " fill="#A23C98" transform="translate(308,328)"/>
<path d="M0 0 C1.65 0.99 3.3 1.98 5 3 C4.67 4.32 4.34 5.64 4 7 C1.525 6.01 1.525 6.01 -1 5 C-0.34 4.67 0.32 4.34 1 4 C0.67 2.68 0.34 1.36 0 0 Z " fill="#845CA1" transform="translate(220,310)"/>
<path d="M0 0 C-1.23789629 3.71368887 -2.85224877 4.77354181 -6 7 C-6.66 7 -7.32 7 -8 7 C-7.62005832 4.24542282 -7.1926367 3.17979426 -5.125 1.25 C-3 0 -3 0 0 0 Z " fill="#CA74AA" transform="translate(372,213)"/>
<path d="M0 0 C1.46067199 0.45082469 2.91848032 0.91093537 4.375 1.375 C5.18710937 1.63023438 5.99921875 1.88546875 6.8359375 2.1484375 C9 3 9 3 11 5 C3.51533742 4.38650307 3.51533742 4.38650307 1 2.5 C0 1 0 1 0 0 Z " fill="#D886B0" transform="translate(338,79)"/>
<path d="M0 0 C0.99 0.33 1.98 0.66 3 1 C2.33333333 3 1.66666667 5 1 7 C0.34 7 -0.32 7 -1 7 C-1.33 5.02 -1.66 3.04 -2 1 C-1.34 0.67 -0.68 0.34 0 0 Z " fill="#6D3C8E" transform="translate(190,345)"/>
<path d="M0 0 C0.99 0 1.98 0 3 0 C1.70700306 2.88437779 0.34058637 4.87219421 -2 7 C-2.33 5.35 -2.66 3.7 -3 2 C-2.01 2 -1.02 2 0 2 C0 1.34 0 0.68 0 0 Z " fill="#9C73A9" transform="translate(223,296)"/>
<path d="M0 0 C0.33 0.66 0.66 1.32 1 2 C0.34 2 -0.32 2 -1 2 C-1.66 3.32 -2.32 4.64 -3 6 C-3.99 6 -4.98 6 -6 6 C-6 5.01 -6 4.02 -6 3 C-4.02 2.01 -2.04 1.02 0 0 Z " fill="#B7528F" transform="translate(361,286)"/>
<path d="M0 0 C0.66 0 1.32 0 2 0 C2.33 0.99 2.66 1.98 3 3 C1.5625 5.1875 1.5625 5.1875 0 7 C-0.99 5.68 -1.98 4.36 -3 3 C-2.67 2.34 -2.34 1.68 -2 1 C-1.34 1.33 -0.68 1.66 0 2 C0 1.34 0 0.68 0 0 Z " fill="#895FA1" transform="translate(180,264)"/>
<path d="M0 0 C2.31 0.33 4.62 0.66 7 1 C4.94766315 3.2477975 3.99332739 4.0022242 1 5 C0.67 3.35 0.34 1.7 0 0 Z " fill="#B43F99" transform="translate(319,195)"/>
<path d="M0 0 C0.66 1.32 1.32 2.64 2 4 C0.68 5.32 -0.64 6.64 -2 8 C-2.99 7.34 -3.98 6.68 -5 6 C-4.360625 5.7525 -3.72125 5.505 -3.0625 5.25 C-0.81258459 4.18437567 -0.81258459 4.18437567 -0.25 1.875 C-0.1675 1.25625 -0.085 0.6375 0 0 Z " fill="#9D63A3" transform="translate(200,142)"/>
<path d="M0 0 C0.66 0.99 1.32 1.98 2 3 C0.8125 4.5 0.8125 4.5 -1 6 C-3.6875 6.1875 -3.6875 6.1875 -6 6 C-4 4 -2 2 0 0 Z " fill="#AD5F9D" transform="translate(300,141)"/>
<path d="M0 0 C0.99 0.99 1.98 1.98 3 3 C2.0409375 3.433125 2.0409375 3.433125 1.0625 3.875 C-1.15206079 4.82823451 -1.15206079 4.82823451 -2 7 C-2.66 6.01 -3.32 5.02 -4 4 C-3.34 4 -2.68 4 -2 4 C-2 3.34 -2 2.68 -2 2 C-1.34 2 -0.68 2 0 2 C0 1.34 0 0.68 0 0 Z " fill="#D556A0" transform="translate(380,131)"/>
<path d="M0 0 C0.33 0.66 0.66 1.32 1 2 C-1.40983607 6.70491803 -1.40983607 6.70491803 -4 8 C-4 6.35 -4 4.7 -4 3 C-3.34 3 -2.68 3 -2 3 C-2 2.34 -2 1.68 -2 1 C-1.34 0.67 -0.68 0.34 0 0 Z " fill="#925999" transform="translate(189,122)"/>
<path d="M0 0 C0 0.99 0 1.98 0 3 C-1.32 3 -2.64 3 -4 3 C-4 3.66 -4 4.32 -4 5 C-5.98 5.99 -5.98 5.99 -8 7 C-8.66 6.34 -9.32 5.68 -10 5 C-6.7 3.35 -3.4 1.7 0 0 Z " fill="#B071A7" transform="translate(235,84)"/>
<path d="M0 0 C0.99 0 1.98 0 3 0 C1.6302836 3.99500618 -0.25722422 6.80009492 -3 10 C-2.67 8.02 -2.34 6.04 -2 4 C-1.34 4 -0.68 4 0 4 C0 2.68 0 1.36 0 0 Z " fill="#D17BAC" transform="translate(382,80)"/>
<path d="M0 0 C1 3 1 3 -0.1875 5.625 C-2 8 -2 8 -6 9 C-4.02 6.03 -2.04 3.06 0 0 Z " fill="#9573AD" transform="translate(194,337)"/>
<path d="M0 0 C0.66 0.33 1.32 0.66 2 1 C2 1.99 2 2.98 2 4 C0.02 4.33 -1.96 4.66 -4 5 C-3.67 3.68 -3.34 2.36 -3 1 C-2.34 1.33 -1.68 1.66 -1 2 C-0.67 1.34 -0.34 0.68 0 0 Z " fill="#8B4695" transform="translate(268,289)"/>
<path d="M0 0 C0.66 0 1.32 0 2 0 C1.49396008 2.16874252 1.00016187 3.99967627 0 6 C-2.0625 6.625 -2.0625 6.625 -4 7 C-2.79618552 4.50638429 -1.54571278 2.31856917 0 0 Z " fill="#9D70AA" transform="translate(236,279)"/>
<path d="M0 0 C0.99 0.33 1.98 0.66 3 1 C4.1875 3.5625 4.1875 3.5625 5 6 C4.34 6 3.68 6 3 6 C3 6.99 3 7.98 3 9 C2.34 8.67 1.68 8.34 1 8 C0.40644386 5.35139573 0.25790731 2.70802678 0 0 Z " fill="#883A8D" transform="translate(280,273)"/>
<path d="M0 0 C-1.45255699 3.82946843 -3.42895561 5.12050295 -7 7 C-7 6.01 -7 5.02 -7 4 C-6.34 4 -5.68 4 -5 4 C-4.67 3.01 -4.34 2.02 -4 1 C-2 0 -2 0 0 0 Z " fill="#B47EAC" transform="translate(309,261)"/>
<path d="M0 0 C0.66 0 1.32 0 2 0 C2.86516528 4.49885947 3.30903272 7.01647791 1 11 C0.63890458 9.35567294 0.28629924 7.7094792 -0.0625 6.0625 C-0.25972656 5.14597656 -0.45695312 4.22945312 -0.66015625 3.28515625 C-0.77230469 2.53105469 -0.88445312 1.77695313 -1 1 C-0.67 0.67 -0.34 0.34 0 0 Z " fill="#D674A8" transform="translate(395,166)"/>
<path d="M0 0 C0.33 0.66 0.66 1.32 1 2 C2.98 2 4.96 2 7 2 C6.34 3.65 5.68 5.3 5 7 C4.34 5.68 3.68 4.36 3 3 C1.35 3 -0.3 3 -2 3 C-1.34 2.01 -0.68 1.02 0 0 Z " fill="#D675AD" transform="translate(392,54)"/>
<path d="M0 0 C-1.65 1.32 -3.3 2.64 -5 4 C-5.66 3.67 -6.32 3.34 -7 3 C-7 2.01 -7 1.02 -7 0 C-3.98968256 -0.93423645 -3.13349732 -1.04449911 0 0 Z " fill="#9F6EA7" transform="translate(263,298)"/>
<path d="M0 0 C0.66 0.33 1.32 0.66 2 1 C1.1875 2.9375 1.1875 2.9375 0 5 C-0.99 5.33 -1.98 5.66 -3 6 C-3.33 5.01 -3.66 4.02 -4 3 C-2.68 2.01 -1.36 1.02 0 0 Z " fill="#71388F" transform="translate(189,273)"/>
<path d="M0 0 C0.66 1.32 1.32 2.64 2 4 C0.68 4.99 -0.64 5.98 -2 7 C-2.66 6.67 -3.32 6.34 -4 6 C-2.68 4.02 -1.36 2.04 0 0 Z M3 0 C3 3 3 3 3 3 Z " fill="#A267A2" transform="translate(278,221)"/>
<path d="M0 0 C0.33 0 0.66 0 1 0 C0.67 2.31 0.34 4.62 0 7 C-0.99 6.67 -1.98 6.34 -3 6 C-2.42655063 3.13275314 -2.1385485 2.1385485 0 0 Z " fill="#783788" transform="translate(187,173)"/>
<path d="M0 0 C2.5 2.3125 2.5 2.3125 5 5 C5 5.99 5 6.98 5 8 C4.34 8 3.68 8 3 8 C2.67 6.68 2.34 5.36 2 4 C1.34 4 0.68 4 0 4 C0 2.68 0 1.36 0 0 Z " fill="#D98EBC" transform="translate(394,119)"/>
<path d="M0 0 C2.04119788 1.61594832 4.04072937 3.2856382 6 5 C6 5.66 6 6.32 6 7 C4.68 7 3.36 7 2 7 C1.34 4.69 0.68 2.38 0 0 Z " fill="#D688B3" transform="translate(383,107)"/>
<path d="M0 0 C0 0.66 0 1.32 0 2 C0.99 2.33 1.98 2.66 3 3 C0 5 0 5 -3 5 C-3.33 3.68 -3.66 2.36 -4 1 C-2 0 -2 0 0 0 Z " fill="#B55EA6" transform="translate(240,82)"/>
<path d="M0 0 C-3.06117568 2.62386487 -3.73173127 3 -8 3 C-8 2.01 -8 1.02 -8 0 C-4.94736336 -0.98120464 -3.05263664 -0.98120464 0 0 Z " fill="#B14093" transform="translate(266,77)"/>
<path d="M0 0 C0.33 0.66 0.66 1.32 1 2 C1.99 2.66 2.98 3.32 4 4 C3.01 4.99 2.02 5.98 1 7 C0.34 6.34 -0.32 5.68 -1 5 C-0.625 2.375 -0.625 2.375 0 0 Z " fill="#824CA1" transform="translate(213,311)"/>
<path d="M0 0 C1.65 0 3.3 0 5 0 C5.66 1.32 6.32 2.64 7 4 C5.35 4.33 3.7 4.66 2 5 C2 4.01 2 3.02 2 2 C1.34 1.34 0.68 0.68 0 0 Z " fill="#9B71AA" transform="translate(212,306)"/>
<path d="M0 0 C1 3 1 3 1 5 C-1.91517292 3.92598892 -3.77810176 3.22189824 -6 1 C-4.02 0.67 -2.04 0.34 0 0 Z " fill="#8F5F9E" transform="translate(239,292)"/>
<path d="M0 0 C3.36720387 1.39332574 4.9859524 2.9789286 7 6 C2.25 5.125 2.25 5.125 0 4 C0 2.68 0 1.36 0 0 Z " fill="#9B6CA6" transform="translate(218,280)"/>
<path d="M0 0 C1.98 0.495 1.98 0.495 4 1 C2.515 3.475 2.515 3.475 1 6 C0.34 5.67 -0.32 5.34 -1 5 C-0.67 3.35 -0.34 1.7 0 0 Z " fill="#CC679F" transform="translate(395,278)"/>
<path d="M0 0 C0.66 0 1.32 0 2 0 C2.625 3.375 2.625 3.375 3 7 C2.34 7.66 1.68 8.32 1 9 C0.67 6.03 0.34 3.06 0 0 Z " fill="#C95998" transform="translate(419,175)"/>
<path d="M0 0 C0.66 0.33 1.32 0.66 2 1 C2 1.99 2 2.98 2 4 C1.360625 4.12375 0.72125 4.2475 0.0625 4.375 C-0.9584375 4.684375 -0.9584375 4.684375 -2 5 C-2.33 5.66 -2.66 6.32 -3 7 C-3.99 6.67 -4.98 6.34 -6 6 C-5.34 6 -4.68 6 -4 6 C-3.67 5.01 -3.34 4.02 -3 3 C-1.4375 1.3125 -1.4375 1.3125 0 0 Z " fill="#CC8FBA" transform="translate(317,124)"/>
<path d="M0 0 C1.5625 1.8125 1.5625 1.8125 3 4 C2.67 4.99 2.34 5.98 2 7 C2 6.34 2 5.68 2 5 C1.34 5 0.68 5 0 5 C0 4.34 0 3.68 0 3 C-0.99 3 -1.98 3 -3 3 C-3 2.34 -3 1.68 -3 1 C-2.01 0.67 -1.02 0.34 0 0 Z " fill="#CD4890" transform="translate(382,107)"/>
<path d="M0 0 C0 0.99 0 1.98 0 3 C-4.455 2.01 -4.455 2.01 -9 1 C-9 0.67 -9 0.34 -9 0 C-5.62182575 -0.84454356 -3.32534757 -1.10844919 0 0 Z " fill="#D579AE" transform="translate(325,97)"/>
<path d="M0 0 C2.475 0.495 2.475 0.495 5 1 C5.33 1.99 5.66 2.98 6 4 C6.66 4.33 7.32 4.66 8 5 C5.07120629 4.37240135 2.63904371 3.41377341 0 2 C0 1.34 0 0.68 0 0 Z " fill="#C3548E" transform="translate(333,78)"/>
<path d="M0 0 C-1.32 1.65 -2.64 3.3 -4 5 C-4 4.34 -4 3.68 -4 3 C-5.65 2.67 -7.3 2.34 -9 2 C-5.86501708 0.14223235 -3.62528568 -0.20140476 0 0 Z " fill="#CC89BD" transform="translate(276,72)"/>
</svg>
